<svg xmlns="http://www.w3.org/2000/svg" xmlns:xlink="http://www.w3.org/1999/xlink" width="126" height="126" viewBox="0 0 126 126">
    <defs>
        <rect id="b" width="102" height="102" rx="20"/>
        <filter id="a" width="137.3%" height="137.3%" x="-18.6%" y="-16.7%" filterUnits="objectBoundingBox">
            <feOffset dy="2" in="SourceAlpha" result="shadowOffsetOuter1"/>
            <feGaussianBlur in="shadowOffsetOuter1" result="shadowBlurOuter1" stdDeviation="6"/>
            <feColorMatrix in="shadowBlurOuter1" values="0 0 0 0 0 0 0 0 0 0 0 0 0 0 0 0 0 0 0.1 0"/>
        </filter>
    </defs>
    <g fill="none" fill-rule="evenodd">
        <g transform="translate(12 10)">
            <use fill="#000" filter="url(#a)" xlink:href="#b"/>
            <use fill="#FFF" xlink:href="#b"/>
        </g>
        <path fill="#87B961" d="M66.366 82.948c-.142-3.937-3.404-7.086-7.408-7.086-4.094 0-7.413 3.294-7.413 7.356 0 3.972 3.174 7.21 7.141 7.35v.005h7.685v-7.625h-.005zM49.876 88.993l-2.726-16.59c-.081-.5-.19-.775-.37-.922-.175-.143-.467-.205-.976-.205h-.83c-.583 0-.768.068-.885.142-.158.102-.296.32-.475.741l-4.58 10.437-4.366-10.424c-.236-.536-.375-.68-.49-.754-.115-.074-.3-.142-.885-.142h-.815c-.512 0-.804.063-.976.21-.168.145-.279.416-.368.908l-3.062 16.58c-.065.357-.073.485-.073.551 0 .43.206.635.377.732.192.107.48.157.908.157h1.657c.447 0 .726-.048.903-.156.207-.127.339-.365.403-.737.009-.06.022-.134.04-.232l1.502-9.137 4.09 9.603c.215.494.331.637.417.712.144.127.36.186.678.186.465 0 .824-.234 1.012-.656a3.45 3.45 0 0 0 .095-.227l4.243-9.61 1.336 9.106c.069.5.172.779.35.931.177.152.471.217.984.217h1.67c.428 0 .717-.05.907-.157.14-.079.377-.278.377-.718 0-.066-.008-.194-.072-.546M76.205 87.135c1.095 0 1.984-.37 2.669-1.113.684-.743 1.026-1.692 1.026-2.851 0-1.178-.346-2.136-1.04-2.88-.694-.742-1.58-1.114-2.655-1.114-1.077 0-1.962.372-2.656 1.115-.693.743-1.04 1.701-1.04 2.879 0 1.159.342 2.108 1.026 2.851.685.743 1.575 1.113 2.67 1.113M69.7 76.243h2.108c.42 0 .766.332.777.75l.032 1.043c.95-1.485 2.492-2.226 4.627-2.226 1.223 0 2.322.298 3.299.895.975.598 1.747 1.454 2.313 2.567.565 1.115.848 2.395.848 3.844 0 1.34-.278 2.566-.834 3.68a6.865 6.865 0 0 1-2.368 2.69c-1.023.678-2.172 1.018-3.45 1.018-.93 0-1.77-.177-2.518-.53a4.512 4.512 0 0 1-1.807-1.507v7.583a.676.676 0 0 1-.679.673h-2.447a.676.676 0 0 1-.678-.673V77.015c0-.426.347-.772.777-.772M90.658 90.504a12.01 12.01 0 0 1-3.01-.368c-.671-.171-1.23-.383-1.683-.631a.84.84 0 0 1-.428-.86l.207-1.364c.083-.552.678-.848 1.187-.614.363.168.752.315 1.168.441.83.254 1.628.38 2.394.38 1.551 0 2.327-.388 2.327-1.167 0-.416-.164-.734-.492-.95-.328-.218-1.013-.471-2.053-.762-1.642-.452-2.815-1.026-3.518-1.724-.703-.697-1.053-1.634-1.053-2.812 0-1.321.5-2.362 1.505-3.123 1.003-.76 2.38-1.14 4.133-1.14.858 0 1.716.1 2.573.299.639.148 1.192.33 1.659.55a.681.681 0 0 1 .38.717l-.232 1.575a.687.687 0 0 1-.94.538 8.708 8.708 0 0 0-1.154-.38 8.51 8.51 0 0 0-2.122-.285c-1.332 0-1.998.353-1.998 1.06 0 .397.16.71.48.936.319.227.952.475 1.902.748 1.752.507 2.987 1.104 3.71 1.793.72.688 1.08 1.638 1.08 2.851 0 1.34-.534 2.39-1.6 3.15-1.07.761-2.542 1.142-4.422 1.142"/>
        <path fill="#FFF" d="M58.958 87.135c-.13 0-.258-.006-.384-.019-2.036-.191-3.627-1.89-3.627-3.96 0-2.198 1.795-3.979 4.011-3.979 2.085 0 3.799 1.579 3.992 3.598.011.126.018.253.018.382 0 2.197-1.795 3.978-4.01 3.978"/>
        <path fill="#AF27CC" d="M68.234 62.536c-.183.51-.705.596-1.175.709-.558.137-1.122.242-1.688.327-1.028.156-2.073.217-3.108.26-1.08.043-2.176-.052-3.24-.2a20.143 20.143 0 0 1-3.342-.759 18.865 18.865 0 0 1-5.535-2.842 17.803 17.803 0 0 1-4.301-4.611 18.624 18.624 0 0 1-2.498-5.935c-.48-2.142-.575-4.491-.357-6.668 0-.018 0-.034.008-.052.21 3.101 1.541 7.023 6.738 11.488 5.388 4.62 13.867 3.541 15.687 2.868.026.008.06.008.087.017.252.078.427.26.548.484.427.82.836 1.64 1.254 2.46.017.027.025.062.043.087.21.415.427.838.635 1.253.175.362.392.7.244 1.114"/>
        <path fill="#FF3B4A" d="M42.999 42.757c.244-1.495 1.801-3.05 3.62-2.868 2.307.233 3.195 2.039 3.117 3.48-.009.052-.009.096-.017.147-.252 2.16.07 4.37.931 6.366a12.498 12.498 0 0 0 3.927 4.984 12.667 12.667 0 0 0 5.97 2.453c1.14.147 2.3.147 3.44-.009.278-.034.547-.086.826-.138.21-.043.401-.095.61-.052a16.858 16.858 0 0 1-5.86 1.045 16.677 16.677 0 0 1-13.597-6.917C44.253 48.846 43.2 45.866 43 42.757"/>
        <path fill="#B1B1B1" d="M62.22 26c-.592 0-1.193.026-1.786.07-2.21.172-4.395.69-6.414 1.588a19.242 19.242 0 0 0-5.442 3.645 18.245 18.245 0 0 0-3.848 5.295 18.68 18.68 0 0 0-1.697 5.727 3.404 3.404 0 0 0-.025.432c0 1.822 1.462 3.308 3.29 3.36h.104a3.395 3.395 0 0 0 3.344-2.748c.016-.095.025-.199.042-.292v-.01l.027-.18c.086-1.736.705-6.185 5.675-10.58 6.364-5.633 15.573-4.364 15.782-4.286a19.35 19.35 0 0 0-4.343-1.512 23.08 23.08 0 0 0-2.664-.414c-.67-.061-1.35-.095-2.02-.095h-.026z"/>
        <path fill="#FFE600" d="M62.22 26c-.592 0-1.193.026-1.786.07-2.21.172-4.395.69-6.414 1.588a19.242 19.242 0 0 0-5.442 3.645 18.245 18.245 0 0 0-3.848 5.295 18.68 18.68 0 0 0-1.697 5.727 3.404 3.404 0 0 0-.025.432c0 1.822 1.462 3.308 3.29 3.36h.104a3.395 3.395 0 0 0 3.344-2.748c.016-.095.025-.199.042-.292v-.01l.027-.18c.086-1.736.705-6.185 5.675-10.58 6.364-5.633 15.573-4.364 15.782-4.286a19.35 19.35 0 0 0-4.343-1.512 23.08 23.08 0 0 0-2.664-.414c-.67-.061-1.35-.095-2.02-.095h-.026z"/>
        <path fill="#65CEE7" d="M80.717 50.564a18.369 18.369 0 0 1-1.454 3.37c-.14.258-.295.509-.443.76-.166.267-.436.587-.549.889 0 0 1.028-4.302.288-8.603-.871-5.13-6.938-11.626-9.959-12.766-.061-.034-.114-.07-.174-.104-1.985-1.053-1.89-3.308-1.376-4.534.532-1.252 2.351-1.943 4.85-1.235.243.13.486.268.721.406a17.845 17.845 0 0 1 4.397 3.653 18.364 18.364 0 0 1 3.256 5.303c.835 2.109 1.253 4.37 1.306 6.634.05 2.116-.219 4.215-.863 6.227"/>
        <path fill="#87C966" d="M73.431 31.157c0 .44-.087.863-.244 1.243a3.388 3.388 0 0 1-3.16 2.116c-.583 0-1.14-.147-1.619-.405a12.956 12.956 0 0 0-5.083-1.564c-2.22-.216-4.466.198-6.477 1.14a12.579 12.579 0 0 0-2.717 1.727 12.914 12.914 0 0 0-2.08 2.195 12.399 12.399 0 0 0-2.245 5.277 16.359 16.359 0 0 1 1.028-4.949c2.358-6.228 8.39-10.659 15.46-10.659.338 0 .669.01 1 .034a16.648 16.648 0 0 1 4.039.752c.183.087.365.182.548.277h.009a3.352 3.352 0 0 1 1.541 2.816"/>
        <path fill="#4BA2EA" d="M73.745 62.57c.182.363.356.907.73 1.124.27.155.592.12.897.12h5.52c.661-.017 1.131-.708.8-1.304-.348-.648-.696-1.305-1.045-1.951l-2.132-3.974c-.096-.181-.227-.371-.261-.58 0 0-.078-.12.025-.457a16.32 16.32 0 0 0 1.07-5.847c.001-3.68-1.209-7.074-3.255-9.82a16.762 16.762 0 0 0-7.503-5.658 12.546 12.546 0 0 1 4.24 4.043 12.335 12.335 0 0 1 1.958 6.01 12.401 12.401 0 0 1-1.95 7.403 12.826 12.826 0 0 1-2.263 2.625c-.2.174-.391.32-.478.58a.877.877 0 0 0 .034.648l3.613 7.039z"/>
    </g>
</svg>
