<svg xmlns="http://www.w3.org/2000/svg" width="222" height="248" viewBox="0 0 222 248">
    <g fill="none" fill-rule="evenodd">
        <g opacity=".05">
            <path fill="#FAFAFA" d="M35.571 133.207l-11.428 7.284v-31.368L2.556 124.244l-21.586-15.121v31.316l-11.399-7.268V87.243l32.943 23.072c.025.017.06.017.085 0L35.57 87.243v45.964z"/>
            <path fill="#00CAFC" d="M25.637 94.203L2.65 78.55l-23.133 15.682-9.945-6.952 33.092-22.5 32.908 22.5zM2.572 167.947l-33-21.284v-13.66l33 21.213 33-21.213v13.66z"/>
        </g>
        <g opacity=".05">
            <path fill="#FAFAFA" d="M221.404 251.007l-11.429 7.283v-31.368l-21.587 15.121-21.586-15.121v31.316l-11.398-7.268v-45.928l32.942 23.072c.025.018.06.018.085 0l32.973-23.072v45.965z"/>
            <path fill="#00CAFC" d="M211.47 212.002l-22.99-15.654-23.132 15.683-9.944-6.953 33.091-22.5 32.909 22.5zM188.404 285.746l-33-21.284v-13.66l33 21.213 33-21.213v13.66z"/>
        </g>
        <g opacity=".05">
            <path fill="#FAFAFA" d="M221.404 133.132l-11.429 7.283v-31.368l-21.587 15.121-21.586-15.121v31.316l-11.398-7.268V87.167l32.942 23.072c.025.018.06.018.085 0l32.973-23.072v45.965z"/>
            <path fill="#00CAFC" d="M211.47 94.127l-22.99-15.654-23.132 15.683-9.944-6.953 33.091-22.5 32.909 22.5zM188.404 167.871l-33-21.284v-13.66l33 21.213 33-21.213v13.66z"/>
        </g>
        <g opacity=".08">
            <path fill="#FAFAFA" d="M129 68.429l-11.428 7.283V44.344L95.985 59.465 74.398 44.344V75.66L63 68.392V22.464l32.942 23.072c.026.018.06.018.085 0L129 22.464v45.965z"/>
            <path fill="#00CAFC" d="M119.066 29.424L96.077 13.77 72.944 29.453 63 22.5 96.091 0 129 22.5zM96 103.168L63 81.884v-13.66l33 21.213 33-21.213v13.66z"/>
        </g>
        <g opacity=".15">
            <path fill="#FAFAFA" d="M129 186.403l-11.428 7.284v-31.369L95.985 177.44l-21.587-15.122v31.317L63 186.367v-45.928l32.942 23.072c.026.017.06.017.085 0L129 140.439v45.964z"/>
            <path fill="#00CAFC" d="M119.066 147.399l-22.989-15.654-23.133 15.682L63 140.474l33.091-22.5 32.909 22.5zM96 221.143l-33-21.284v-13.66l33 21.213 33-21.213v13.66z"/>
        </g>
    </g>
</svg>
