<svg xmlns="http://www.w3.org/2000/svg" width="100" height="114" viewBox="0 0 83 114">
    <g fill="none" fill-rule="evenodd">
        <g opacity=".05">
            <path fill="#FAFAFA" d="M42 85.426l-7.273 4.622V70.141L20.99 79.738 7.253 70.14v19.874L0 85.403V56.256l20.963 14.642a.048.048 0 0 0 .054 0L42 56.256v29.17z"/>
            <path fill="#00CAFC" d="M35.678 60.673L21.05 50.74 6.33 60.69 0 56.279 21.058 42 42 56.279zM21 107.472L0 93.965v-8.669l21 13.462 21-13.462v8.669z"/>
        </g>
        <g opacity=".08">
            <path fill="#FAFAFA" d="M101 43.426l-7.273 4.622V28.141L79.99 37.738 66.253 28.14v19.874L59 43.403V14.256l20.963 14.642a.048.048 0 0 0 .054 0L101 14.256v29.17z"/>
            <path fill="#00CAFC" d="M94.678 18.673L80.05 8.74 65.33 18.69 59 14.279 80.058 0 101 14.279zM80 65.472L59 51.965v-8.669l21 13.462 21-13.462v8.669z"/>
        </g>
        <g opacity=".15">
            <path fill="#FAFAFA" d="M101 118.426l-7.273 4.622v-19.907l-13.737 9.597-13.737-9.597v19.874L59 118.403V89.256l20.963 14.642a.048.048 0 0 0 .054 0L101 89.256v29.17z"/>
            <path fill="#00CAFC" d="M94.678 93.673L80.05 83.74 65.33 93.69 59 89.279 80.058 75 101 89.279zM80 140.472l-21-13.507v-8.669l21 13.462 21-13.462v8.669z"/>
        </g>
    </g>
</svg>
