<svg xmlns="http://www.w3.org/2000/svg" width="100%" height="282" viewBox="0 0 684 282">
    <g fill="none" fill-rule="evenodd" opacity=".653">
        <g opacity=".149">
            <path fill="#FAFAFA" d="M393.796 208.367l-18.008 11.415v-49.164l-34.015 23.7-34.016-23.7v49.083l-17.96-11.391v-71.984l51.908 36.161a.12.12 0 0 0 .135 0l51.956-36.16v72.04z"/>
            <path fill="#00CAFC" d="M378.143 147.235L341.918 122.7l-36.452 24.58-15.67-10.898 52.145-35.264 51.855 35.264zM341.797 262.814l-52-33.359v-21.409l52 33.247 52-33.247v21.41z"/>
        </g>
        <g opacity=".05">
            <path fill="#FAFAFA" d="M104 208.367l-18.008 11.415v-49.164l-34.016 23.7-34.015-23.7v49.083L0 208.31v-71.984l51.909 36.161a.12.12 0 0 0 .134 0L104 136.327v72.04z"/>
            <path fill="#00CAFC" d="M88.346 147.235L52.122 122.7 15.67 147.28 0 136.381l52.144-35.264L104 136.382zM52 262.814L0 229.455v-21.409l52 33.247 52-33.247v21.41z"/>
        </g>
        <g opacity=".05">
            <path fill="#FAFAFA" d="M684 392.249l-18.008 11.415V354.5l-34.016 23.7-34.015-23.7v49.083L580 392.19v-71.983l51.909 36.161a.12.12 0 0 0 .134 0L684 320.208v72.04z"/>
            <path fill="#00CAFC" d="M668.346 331.117l-36.224-24.535-36.452 24.58L580 320.263 632.144 285 684 320.264zM632 446.696l-52-33.359v-21.409l52 33.247 52-33.247v21.41z"/>
        </g>
        <g opacity=".05">
            <path fill="#FAFAFA" d="M684 208.249l-18.008 11.415V170.5l-34.016 23.7-34.015-23.7v49.083L580 208.19v-71.983l51.909 36.161a.12.12 0 0 0 .134 0L684 136.208v72.04z"/>
            <path fill="#00CAFC" d="M668.346 147.117l-36.224-24.535-36.452 24.58L580 136.263 632.144 101 684 136.264zM632 262.696l-52-33.359v-21.409l52 33.247 52-33.247v21.41z"/>
        </g>
        <g opacity=".08">
            <path fill="#FAFAFA" d="M248.564 107.249l-18.009 11.415V69.5L196.54 93.2l-34.015-23.7v49.083l-17.961-11.392V35.208l51.909 36.161a.12.12 0 0 0 .134 0l51.957-36.161v72.04z"/>
            <path fill="#00CAFC" d="M232.91 46.117l-36.225-24.535-36.451 24.58-15.67-10.898L196.708 0l51.856 35.264zM196.564 161.696l-52-33.359v-21.409l52 33.247 52-33.247v21.41z"/>
        </g>
        <g opacity=".08">
            <path fill="#FAFAFA" d="M539.699 291.404L521.69 302.82v-49.163l-34.015 23.7-34.015-23.7v49.082l-17.961-11.391v-71.984l51.909 36.162a.12.12 0 0 0 .134 0l51.957-36.162v72.041z"/>
            <path fill="#00CAFC" d="M524.045 230.272l-36.225-24.534-36.451 24.579-15.67-10.898 52.144-35.264 51.856 35.264zM487.699 345.851l-52-33.358v-21.41l52 33.248 52-33.248v21.41z"/>
        </g>
    </g>
</svg>
