<svg xmlns="http://www.w3.org/2000/svg" xmlns:xlink="http://www.w3.org/1999/xlink" width="463" height="243" viewBox="0 0 463 243">
    <defs>
        <path id="devices-a" d="M12.145.49C5.662.49.36 5.771.36 12.23v156.54c0 6.458 5.303 11.74 11.786 11.74h86.242c6.483 0 11.788-5.282 11.788-11.74V12.23c0-6.458-5.305-11.74-11.788-11.74"/>
        <path id="devices-c" d="M12.145.49C5.662.49.36 5.771.36 12.23v156.54c0 6.458 5.303 11.74 11.786 11.74h86.242c6.483 0 11.788-5.282 11.788-11.74V12.23c0-6.458-5.305-11.74-11.788-11.74H12.145z"/>
    </defs>
    <g fill="none" fill-rule="evenodd">
        <path fill="#2C3B51" d="M157.254 239H17.746C10.186 239 4 232.866 4 225.37V43.63C4 36.134 10.186 30 17.746 30h139.508C164.814 30 171 36.134 171 43.63v181.74c0 7.496-6.186 13.63-13.746 13.63"/>
        <path stroke="#00CAFC" stroke-width="7" d="M157.254 239H17.746C10.186 239 4 232.866 4 225.37V43.63C4 36.134 10.186 30 17.746 30h139.508C164.814 30 171 36.134 171 43.63v181.74c0 7.496-6.186 13.63-13.746 13.63z"/>
        <path fill="#FFF" d="M147.592 206.3H27.407c-4.239 0-7.706-3.436-7.706-7.635V54.697c0-4.2 3.467-7.636 7.706-7.636h120.185c4.239 0 7.707 3.437 7.707 7.636v143.968c0 4.199-3.468 7.634-7.707 7.634"/>
        <path stroke="#00CAFC" stroke-width="3" d="M147.592 206.3H27.407c-4.239 0-7.706-3.436-7.706-7.635V54.697c0-4.2 3.467-7.636 7.706-7.636h120.185c4.239 0 7.707 3.437 7.707 7.636v143.968c0 4.199-3.468 7.634-7.707 7.634z"/>
        <path stroke="#00CAFC" stroke-linecap="round" stroke-linejoin="round" stroke-width="7" d="M85.359 221.228h4.282"/>
        <path fill="#2C3B51" d="M103.915 104.891l-5.189 3.306V93.96l-9.342 6.54a.811.811 0 0 1-.928 0l-9.341-6.54v14.215l-5.175-3.299V84.027l14.496 10.148c.29.203.677.203.968 0L103.9 84.027l.014 20.864z"/>
        <path fill="#00CAFC" d="M99.416 86.858l-9.943-6.507a.92.92 0 0 0-1.008-.001l-10.008 6.52-4.517-3.138L88.42 74.24c.337-.22.775-.22 1.112.002l14.384 9.49-4.499 3.126zM88.332 120.818l-14.386-9.269-.006-6.195 14.453 9.278a.99.99 0 0 0 1.068 0l14.454-9.278-.014 6.195-14.379 9.27a1.1 1.1 0 0 1-1.19 0M103.915 130.946H86.878V160.247a13.999 13.999 0 0 0-7.41-2.111c-7.783 0-14.092 6.325-14.092 14.13 0 7.802 6.309 14.129 14.092 14.129 7.344 0 13.373-5.634 14.03-12.825h.063v-35.356h10.354v-7.268z"/>
        <path fill="#2C3B51" d="M80.209 161.099c-6.494 0-11.777 5.302-11.777 11.82 0 6.517 5.283 11.82 11.777 11.82 6.127 0 11.166-4.611 11.724-10.727.01-.11.028-.215.053-.32v-34.68a2.245 2.245 0 0 1 2.242-2.25h8.06v-2.739H89.821v26.928c0 .817-.44 1.57-1.152 1.966a2.231 2.231 0 0 1-2.27-.053 11.722 11.722 0 0 0-6.191-1.765m0 28.14c-8.967 0-16.26-7.322-16.26-16.32 0-9 7.293-16.32 16.26-16.32 1.754 0 3.485.283 5.13.832v-25.657a2.246 2.246 0 0 1 2.242-2.25h16.947a2.245 2.245 0 0 1 2.241 2.25v7.238a2.245 2.245 0 0 1-2.241 2.249h-8.059v32.957c0 .266-.046.523-.13.76a16.304 16.304 0 0 1-5.141 9.968 16.181 16.181 0 0 1-10.989 4.292"/>
        <g>
            <path fill="#2C3B51" d="M282.199 237.375h-58.321l14.225-61.133h29.871z"/>
            <path stroke="#00CAFC" stroke-linecap="round" stroke-linejoin="round" stroke-width="3" d="M282.199 237.375h-58.321l14.225-61.133h29.871z"/>
            <path fill="#FFF" d="M385.365 13.239v148.583c0 5.24-4.29 9.527-9.533 9.527H130.244c-5.243 0-9.533-4.286-9.533-9.527V13.24c0-5.24 4.29-9.528 9.533-9.528h245.588c5.243 0 9.533 4.288 9.533 9.528"/>
            <path stroke="#00CAFC" stroke-width="7" d="M385.365 13.239v148.583c0 5.24-4.29 9.527-9.533 9.527H130.244c-5.243 0-9.533-4.286-9.533-9.527V13.24c0-5.24 4.29-9.528 9.533-9.528h245.588c5.243 0 9.533 4.288 9.533 9.528z"/>
            <path fill="#2C3B51" d="M385.365 159.182V176.1c0 9.383-7.576 17.06-16.835 17.06H137.547c-9.26 0-16.836-7.677-16.836-17.06v-16.918h264.654z"/>
            <path stroke="#00CAFC" stroke-width="7" d="M385.365 159.182V176.1c0 9.383-7.576 17.06-16.835 17.06H137.547c-9.26 0-16.836-7.677-16.836-17.06v-16.918h264.654z"/>
            <path stroke="#00CAFC" stroke-linecap="round" stroke-linejoin="round" stroke-width="7" d="M250.16 176.797h5.758"/>
            <path fill="#2C3B51" d="M206.097 237.375h93.883"/>
            <path stroke="#00CAFC" stroke-linecap="round" stroke-linejoin="round" stroke-width="3" d="M206.097 237.375h93.883"/>
            <path fill="#2C3B51" d="M177.146 58.715l-6.398 4.082v-17.58l-11.52 8.074a1 1 0 0 1-1.146 0l-11.519-8.074v17.551l-6.381-4.073v-25.74l17.876 12.53c.358.25.835.25 1.193 0l17.878-12.53.017 25.76z"/>
            <path fill="#00CAFC" d="M171.585 36.842l-12.258-8.088a1.126 1.126 0 0 0-1.242-.001l-12.337 8.105-5.567-3.901 17.847-11.798a1.24 1.24 0 0 1 1.372.003l17.73 11.795-5.545 3.885zM157.93 77.678l-17.746-11.37-.007-7.598 17.828 11.38c.401.256.916.256 1.317 0l17.828-11.38-.017 7.599-17.736 11.369a1.364 1.364 0 0 1-1.468 0M252.052 122.936a1.564 1.564 0 0 0 2.252-.004l7.192-7.495 14.539-15.156c2.78-2.896 5.936-5.593 8.426-8.773.437-.559.852-1.132 1.244-1.723a22.827 22.827 0 0 0 3.756-12.53c0-12.595-10.213-22.805-22.814-22.805-5.1 0-9.81 1.674-13.61 4.501a22.712 22.712 0 0 0-13.608-4.5c-12.599 0-22.813 10.207-22.815 22.799 0 5.249 1.922 10.314 5.194 14.393 1.732 2.16 3.862 4.045 5.79 6.037l13.874 14.327 10.58 10.929z"/>
            <path fill="#2C3B51" d="M239.43 57.268c-11.024 0-19.994 8.964-19.996 19.982-.001 4.469 1.623 8.954 4.574 12.63 1.083 1.352 2.36 2.606 3.71 3.936.628.617 1.277 1.254 1.907 1.905l23.547 24.32L274 98.331c.96-1 1.964-1.977 2.934-2.924 1.936-1.885 3.763-3.665 5.306-5.637.406-.518.78-1.035 1.111-1.537a19.874 19.874 0 0 0 3.292-10.98c0-11.02-8.97-19.986-19.996-19.986a19.84 19.84 0 0 0-11.926 3.943 2.82 2.82 0 0 1-3.367 0 19.834 19.834 0 0 0-11.924-3.943zm13.747 68.962a4.407 4.407 0 0 1-3.151-1.335L225.572 99.64c-.58-.601-1.178-1.187-1.81-1.808-1.406-1.383-2.861-2.815-4.154-4.426-3.748-4.674-5.812-10.41-5.812-16.156.001-14.126 11.5-25.617 25.634-25.617 4.87 0 9.536 1.343 13.609 3.905 4.072-2.562 8.736-3.905 13.608-3.905 14.135 0 25.634 11.494 25.634 25.621 0 5.027-1.46 9.897-4.223 14.084a28.72 28.72 0 0 1-1.377 1.906c-1.777 2.27-3.828 4.268-5.81 6.2-.98.955-1.907 1.857-2.8 2.788l-21.73 22.649a4.408 4.408 0 0 1-3.155 1.35h-.01z"/>
        </g>
        <g>
            <path fill="#2C3B51" d="M447.387 238.51h-86.242c-6.483 0-11.787-5.282-11.787-11.74V70.23c0-6.458 5.304-11.74 11.787-11.74h86.242c6.484 0 11.788 5.282 11.788 11.74v156.54c0 6.458-5.304 11.74-11.788 11.74"/>
            <path stroke="#00CAFC" stroke-width="3" d="M447.387 238.51h-86.242c-6.483 0-11.787-5.282-11.787-11.74V70.23c0-6.458 5.304-11.74 11.787-11.74h86.242c6.484 0 11.788 5.282 11.788 11.74v156.54c0 6.458-5.304 11.74-11.788 11.74z"/>
            <g transform="translate(349 58)">
                <mask id="devices-b" fill="#fff">
                    <use xlink:href="#devices-a"/>
                </mask>
                <path fill="#FFF" d="M161.56 154.87H-32.219c-3.621 0-6.583-2.95-6.583-6.557V31.49c0-3.606 2.962-6.557 6.583-6.557h193.777c3.621 0 6.584 2.95 6.584 6.557v116.823c0 3.607-2.963 6.557-6.584 6.557" mask="url(#devices-b)"/>
            </g>
            <g transform="translate(349 58)">
                <mask id="devices-d" fill="#fff">
                    <use xlink:href="#devices-c"/>
                </mask>
                <path stroke="#00CAFC" stroke-width="3" d="M161.56 154.87H-32.219c-3.621 0-6.583-2.95-6.583-6.557V31.49c0-3.606 2.962-6.557 6.583-6.557h193.777c3.621 0 6.584 2.95 6.584 6.557v116.823c0 3.607-2.963 6.557-6.584 6.557z" mask="url(#devices-d)"/>
            </g>
            <g>
                <path stroke="#00CAFC" stroke-width="7" d="M447.387 238.51h-86.242c-6.483 0-11.787-5.282-11.787-11.74V70.23c0-6.458 5.304-11.74 11.787-11.74h86.242c6.484 0 11.788 5.282 11.788 11.74v156.54c0 6.458-5.304 11.74-11.788 11.74z"/>
                <path stroke="#00CAFC" stroke-linecap="round" stroke-linejoin="round" stroke-width="7" d="M402.194 224.217h3.977"/>
                <path fill="#00CAFC" d="M404.267 180.73c-5.793 0-10.49-4.677-10.49-10.447 0-5.769 4.697-10.447 10.49-10.447 5.792 0 10.489 4.678 10.489 10.447 0 5.77-4.697 10.448-10.49 10.448m0-30.673c-11.418 0-20.674 9.22-20.674 20.593 0 6.232 2.783 11.812 7.175 15.588l13.5 13.447 13.5-13.447c4.391-3.776 7.174-9.356 7.174-15.588 0-11.372-9.256-20.593-20.674-20.593"/>
                <path fill="#2C3B51" d="M404.267 161.775c-4.71 0-8.543 3.817-8.543 8.508 0 4.692 3.832 8.508 8.543 8.508 4.71 0 8.542-3.816 8.542-8.508 0-4.69-3.832-8.508-8.542-8.508m0 20.895c-6.858 0-12.436-5.557-12.436-12.387s5.578-12.386 12.436-12.386c6.857 0 12.435 5.556 12.435 12.386 0 6.83-5.578 12.387-12.435 12.387m0-30.672c-10.326 0-18.728 8.368-18.728 18.653 0 5.421 2.37 10.569 6.5 14.12l.104.097 12.124 12.075 12.123-12.075c.033-.033.069-.065.104-.097a18.614 18.614 0 0 0 6.5-14.12c0-10.285-8.402-18.653-18.727-18.653m0 49.627c-.499 0-.998-.19-1.377-.569L389.44 187.66a22.482 22.482 0 0 1-7.794-17.008c0-12.423 10.148-22.532 22.622-22.532 12.473 0 22.62 10.109 22.62 22.532 0 6.526-2.839 12.721-7.793 17.008l-13.451 13.397c-.38.379-.878.569-1.376.569"/>
            </g>
            <g>
                <path fill="#2C3B51" d="M417.222 122.284l-4.268 2.894v-12.465l-7.683 5.725a.634.634 0 0 1-.764 0l-7.683-5.725v12.445l-4.256-2.888v-18.251l11.923 8.884c.239.177.557.177.796 0l11.923-8.884.012 18.265z"/>
                <path fill="#00CAFC" d="M413.512 106.774l-8.175-5.734a.714.714 0 0 0-.828-.002l-8.228 5.747-3.713-2.766 11.903-8.365a.786.786 0 0 1 .915.002l11.825 8.363-3.699 2.755zM404.405 135.73l-11.835-8.062-.005-5.388 11.89 8.07a.777.777 0 0 0 .879 0l11.89-8.07-.011 5.388-11.829 8.062a.864.864 0 0 1-.979 0"/>
            </g>
        </g>
    </g>
</svg>
