<svg xmlns="http://www.w3.org/2000/svg" xmlns:xlink="http://www.w3.org/1999/xlink" width="230" height="277" viewBox="0 0 230 277">
    <defs>
        <path id="disk-a" d="M0 0h229.176v277H0z"/>
    </defs>
    <g fill="none" fill-rule="evenodd">
        <path fill="#2C3B51" d="M8 152h211V51H8z"/>
        <path fill="#2C3B51" d="M210.374 273.506H18.803c-8.433 0-15.33-6.942-15.33-15.426V18.92c0-8.484 6.897-15.426 15.33-15.426h191.571c8.431 0 15.33 6.942 15.33 15.426v239.16c0 8.484-6.899 15.426-15.33 15.426"/>
        <g>
            <mask id="disk-b" fill="#fff">
                <use xlink:href="#disk-a"/>
            </mask>
            <path fill="#00CAFC" d="M9.056 6.988c-1.144 0-2.11.974-2.11 2.125v258.774c0 1.151.966 2.125 2.11 2.125H220.12c1.144 0 2.112-.974 2.112-2.125V9.113c0-1.151-.968-2.125-2.112-2.125H9.056zM220.12 277H9.056C4.063 277 0 272.912 0 267.887V9.113C0 4.089 4.063 0 9.056 0H220.12c4.993 0 9.056 4.089 9.056 9.113v258.774c0 5.025-4.063 9.113-9.056 9.113z" mask="url(#disk-b)"/>
        </g>
        <path fill="#4F6B8E" d="M210.811 12.491c3.3 0 5.974 2.691 5.974 6.012 0 3.32-2.674 6.01-5.974 6.01-3.3 0-5.974-2.69-5.974-6.01s2.674-6.012 5.974-6.012M18.527 12.491c3.3 0 5.974 2.691 5.974 6.012 0 3.32-2.674 6.01-5.974 6.01-3.3 0-5.974-2.69-5.974-6.01s2.674-6.012 5.974-6.012M210.811 252.366c3.3 0 5.974 2.692 5.974 6.011 0 3.32-2.674 6.012-5.974 6.012-3.3 0-5.974-2.691-5.974-6.012 0-3.319 2.674-6.01 5.974-6.01M18.527 252.366c3.3 0 5.974 2.692 5.974 6.011 0 3.32-2.674 6.012-5.974 6.012-3.3 0-5.974-2.691-5.974-6.012 0-3.319 2.674-6.01 5.974-6.01"/>
        <g>
            <path fill="#00CAFC" d="M125.56 18.93c45.204 6.355 76.755 48.573 70.472 94.297-6.283 45.723-48.02 77.636-93.223 71.281-45.205-6.354-76.756-48.572-70.473-94.295 6.282-45.722 48.02-77.638 93.224-71.282"/>
            <path fill="#4F6B8E" d="M35.776 90.696c-6.009 43.731 24.276 84.255 67.51 90.334 43.235 6.078 83.298-24.556 89.307-68.287 6.009-43.732-24.277-84.254-67.511-90.332-43.234-6.078-83.297 24.554-89.306 68.285m163.696 23.014c-6.536 47.568-50.113 80.889-97.142 74.278-47.028-6.612-79.97-50.69-73.433-98.259 6.536-47.568 50.113-80.888 97.14-74.278 47.03 6.611 79.972 50.69 73.435 98.259"/>
            <path fill="#2C3B51" d="M119.531 68.551c18.404 2.587 31.249 19.775 28.691 38.39-2.558 18.615-19.55 31.608-37.953 29.02-18.404-2.586-31.249-19.774-28.691-38.389 2.557-18.615 19.55-31.608 37.953-29.02"/>
            <path fill="#4F6B8E" d="M85.017 98.056c-2.29 16.667 9.252 32.11 25.73 34.427 16.477 2.316 31.745-9.358 34.036-26.025 2.289-16.666-9.252-32.11-25.73-34.427-16.477-2.316-31.745 9.358-34.036 26.025m66.645 9.369c-2.818 20.504-21.601 34.866-41.871 32.017-20.271-2.85-34.47-21.85-31.653-42.353 2.818-20.504 21.601-34.866 41.871-32.016 20.271 2.85 34.47 21.849 31.653 42.352"/>
            <path fill="#FFF" d="M105.593 86.189l7.06-.325-8.177 14.353 13.048-1.174c.39-.035.759.18.925.539l5.538 12.007 8.162-14.328 3.254 6.325L123.43 124.6l-8.594-18.634a.968.968 0 0 0-.962-.562l-20.25 1.823 11.968-21.038z"/>
            <path fill="#00CAFC" d="M99.905 106.662l6.126 12.367c.188.38.582.61 1.001.585l13.723-.817 2.677 5.804-19.885 1.239a1.155 1.155 0 0 1-1.106-.648l-8.817-17.965 6.281-.565zM129.914 79.743l9.028 17.626-3.529 6.206-9.088-17.673a1.138 1.138 0 0 0-1.063-.619l-19.674.908 3.548-6.196 19.595-.942c.493-.024.956.245 1.183.69"/>
        </g>
        <g fill="#FFF">
            <path d="M129.216 169.937a3.484 3.484 0 0 1-3.395-2.735 3.49 3.49 0 0 1 2.642-4.166c12.09-2.697 23.052-8.88 31.699-17.88 8.668-9.02 14.425-20.266 16.649-32.522a64.177 64.177 0 0 0 1.021-11.412c0-1.93 1.56-3.492 3.482-3.492a3.487 3.487 0 0 1 3.482 3.492c0 4.251-.381 8.512-1.135 12.662-2.469 13.614-8.862 26.103-18.484 36.118-9.6 9.99-21.772 16.854-35.201 19.851-.256.056-.51.084-.76.084"/>
            <path d="M124.793 155.037a3.485 3.485 0 0 1-3.41-2.806 3.49 3.49 0 0 1 2.73-4.109c9.213-1.851 17.616-6.373 24.3-13.078 6.685-6.703 11.195-15.13 13.04-24.37.619-3.09.93-6.27.93-9.452 0-1.93 1.56-3.492 3.484-3.492a3.487 3.487 0 0 1 3.482 3.492c0 3.641-.36 7.283-1.067 10.825-2.117 10.594-7.285 20.254-14.944 27.935-7.66 7.681-17.293 12.864-27.857 14.987a3.564 3.564 0 0 1-.688.068M48.055 104.713a3.487 3.487 0 0 1-3.482-3.491c0-4.253.382-8.514 1.135-12.664 2.47-13.613 8.862-26.103 18.484-36.117 9.6-9.99 21.773-16.854 35.202-19.85a3.483 3.483 0 0 1 4.155 2.649 3.493 3.493 0 0 1-2.643 4.167c-12.09 2.698-23.051 8.88-31.699 17.88-8.668 9.02-14.425 20.265-16.647 32.522a64.047 64.047 0 0 0-1.023 11.413 3.487 3.487 0 0 1-3.482 3.491"/>
            <path d="M63.503 104.713a3.487 3.487 0 0 1-3.482-3.491c0-3.643.359-7.285 1.067-10.826 2.116-10.595 7.284-20.255 14.944-27.936 7.66-7.681 17.293-12.864 27.857-14.987a3.485 3.485 0 0 1 4.098 2.738 3.492 3.492 0 0 1-2.73 4.11c-9.214 1.851-17.617 6.374-24.301 13.077-6.686 6.704-11.194 15.13-13.04 24.37a48.32 48.32 0 0 0-.931 9.454 3.487 3.487 0 0 1-3.482 3.491"/>
        </g>
        <g>
            <path fill="#2C3B51" d="M57.488 198.442c5.646-6.08 34.312-56.03 34.312-56.03s-49.95 28.67-56.03 34.747c-6.08 5.646-6.08 15.203 0 21.283 6.08 5.646 15.636 5.646 21.718 0"/>
            <path fill="#4F6B8E" d="M38.177 195.945c4.735 4.352 12.1 4.367 16.854.046 3.392-3.78 16.419-25.464 27.258-44.06-18.727 10.948-40.582 24.196-44.068 27.68l-.091.089a10.728 10.728 0 0 0-3.451 7.73c-.059 3.155 1.183 6.178 3.498 8.515zm8.453 10.199c-4.756 0-9.513-1.72-13.218-5.162a3.199 3.199 0 0 1-.092-.088c-3.688-3.69-5.668-8.516-5.574-13.592.09-4.85 2.087-9.338 5.624-12.644 6.41-6.306 51.564-32.302 56.705-35.253a3.468 3.468 0 0 1 4.732 4.732c-2.955 5.148-29.03 50.472-34.78 56.663a2.919 2.919 0 0 1-.181.182c-3.705 3.441-8.461 5.162-13.216 5.162z"/>
            <path fill="#00CAFC" d="M46.708 181.505a6.098 6.098 0 1 1 0 12.196 6.098 6.098 0 0 1 0-12.196"/>
        </g>
    </g>
</svg>
