<svg xmlns="http://www.w3.org/2000/svg" xmlns:xlink="http://www.w3.org/1999/xlink" width="1440" height="666" viewBox="0 0 1440 666">
    <defs>
        <linearGradient id="b" x1="100%" x2="69.959%" y1="60.351%" y2="46.272%">
            <stop offset="0%" stop-color="#353C52"/>
            <stop offset="100%" stop-color="#171C2F"/>
        </linearGradient>
        <path id="a" d="M1440 681H0V415.185C178.492 246.954 524.774 98.645 937.144 33.42 1114.573 5.354 1285.488-4.335 1440 2.092V681z"/>
    </defs>
    <g fill="none" fill-rule="evenodd" transform="translate(0 -15)">
        <mask id="c" fill="#fff">
            <use xlink:href="#a"/>
        </mask>
        <use fill="url(#b)" transform="matrix(1 0 0 -1 0 681.188)" xlink:href="#a"/>
        <g mask="url(#c)" opacity=".653">
            <g opacity=".149">
                <path fill="#FAFAFA" d="M1095.796 491.367l-18.008 11.415v-49.164l-34.015 23.7-34.016-23.7v49.083l-17.96-11.391v-71.984l51.908 36.161a.12.12 0 0 0 .135 0l51.956-36.16v72.04z"/>
                <path fill="#00CAFC" d="M1080.143 430.235l-36.225-24.535-36.452 24.58-15.67-10.898 52.145-35.264 51.855 35.264zM1043.797 545.814l-52-33.359v-21.409l52 33.247 52-33.247v21.41z"/>
            </g>
            <g opacity=".05">
                <path fill="#FAFAFA" d="M806 491.367l-18.008 11.415v-49.164l-34.016 23.7-34.015-23.7v49.083L702 491.31v-71.984l51.909 36.161a.12.12 0 0 0 .134 0L806 419.327v72.04z"/>
                <path fill="#00CAFC" d="M790.346 430.235L754.122 405.7l-36.452 24.58L702 419.381l52.144-35.264L806 419.382zM754 545.814l-52-33.359v-21.409l52 33.247 52-33.247v21.41z"/>
            </g>
            <g opacity=".05">
                <path fill="#FAFAFA" d="M1386 675.249l-18.008 11.415V637.5l-34.016 23.7-34.015-23.7v49.083L1282 675.19v-71.983l51.909 36.161a.12.12 0 0 0 .134 0L1386 603.208v72.04z"/>
                <path fill="#00CAFC" d="M1370.346 614.117l-36.224-24.535-36.452 24.58-15.67-10.898L1334.144 568 1386 603.264zM1334 729.696l-52-33.359v-21.409l52 33.247 52-33.247v21.41z"/>
            </g>
            <g opacity=".05">
                <path fill="#FAFAFA" d="M1386 491.249l-18.008 11.415V453.5l-34.016 23.7-34.015-23.7v49.083L1282 491.19v-71.983l51.909 36.161a.12.12 0 0 0 .134 0L1386 419.208v72.04z"/>
                <path fill="#00CAFC" d="M1370.346 430.117l-36.224-24.535-36.452 24.58-15.67-10.898L1334.144 384 1386 419.264zM1334 545.696l-52-33.359v-21.409l52 33.247 52-33.247v21.41z"/>
            </g>
            <g opacity=".08">
                <path fill="#FAFAFA" d="M950.564 390.249l-18.009 11.415V352.5l-34.015 23.7-34.015-23.7v49.083l-17.961-11.392v-71.983l51.909 36.161a.12.12 0 0 0 .134 0l51.957-36.161v72.04z"/>
                <path fill="#00CAFC" d="M934.91 329.117l-36.225-24.535-36.451 24.58-15.67-10.898L898.708 283l51.856 35.264zM898.564 444.696l-52-33.359v-21.409l52 33.247 52-33.247v21.41z"/>
            </g>
            <g opacity=".08">
                <path fill="#FAFAFA" d="M1241.699 574.404l-18.009 11.415v-49.163l-34.015 23.7-34.015-23.7v49.082l-17.961-11.391v-71.984l51.909 36.162a.12.12 0 0 0 .134 0l51.957-36.162v72.041z"/>
                <path fill="#00CAFC" d="M1226.045 513.272l-36.225-24.534-36.451 24.579-15.67-10.898 52.144-35.264 51.856 35.264zM1189.699 628.851l-52-33.358v-21.41l52 33.248 52-33.248v21.41z"/>
            </g>
        </g>
    </g>
</svg>
