<svg xmlns="http://www.w3.org/2000/svg" width="63" height="30" viewBox="0 0 63 30">
    <g fill="none" fill-rule="evenodd">
        <path fill="#FFF" d="M19.142 19.816l-3.313 2.135v-9.195l-6.262 4.432-6.262-4.432v9.18L0 19.806V6.34l9.554 6.764a.022.022 0 0 0 .025 0l9.554-6.764.01 13.475z"/>
        <path fill="#00CAFC" d="M9.571 30L.004 23.76 0 19.757l9.571 6.219 9.571-6.219-.009 4.005zM16.235 8.428L9.578 3.991 2.88 8.437.002 6.399 9.582.003l9.519 6.396z"/>
        <path fill="#FFF" d="M28.69 18.932c.953 0 1.736-.333 2.35-.999.614-.665.92-1.525.92-2.58 0-1.038-.302-1.89-.908-2.556-.606-.665-1.393-.998-2.362-.998-.97 0-1.757.333-2.363.998-.606.666-.908 1.518-.908 2.556 0 1.055.307 1.915.92 2.58.614.666 1.397.999 2.35.999zm-.921 3.018a5.429 5.429 0 0 1-2.92-.803 5.563 5.563 0 0 1-2.047-2.3c-.501-.999-.752-2.147-.752-3.445a7.346 7.346 0 0 1 .74-3.298 6.108 6.108 0 0 1 2.095-2.41 5.345 5.345 0 0 1 3.053-.913 4.985 4.985 0 0 1 2.29.523 4.112 4.112 0 0 1 1.636 1.473l.048-1.606h3.223v12.39h-3.223l-.048-1.583a4.03 4.03 0 0 1-1.672 1.473 5.555 5.555 0 0 1-2.423.499zM42.404 21.951a10.521 10.521 0 0 1-2.666-.329c-.84-.219-1.486-.507-1.938-.864l.412-2.75a7.71 7.71 0 0 0 4.047 1.24c1.372 0 2.059-.348 2.06-1.046a.961.961 0 0 0-.437-.852c-.29-.195-.897-.422-1.817-.682-1.454-.405-2.492-.92-3.114-1.546-.622-.624-.933-1.464-.933-2.52 0-1.184.444-2.117 1.333-2.799.888-.682 2.108-1.023 3.659-1.023.767.001 1.53.091 2.277.268a6.53 6.53 0 0 1 1.866.706l-.388 2.678a6.843 6.843 0 0 0-1.732-.694 7.446 7.446 0 0 0-1.878-.255c-1.18 0-1.769.316-1.769.95a.976.976 0 0 0 .424.84c.283.202.844.425 1.684.669 1.551.454 2.645.99 3.284 1.606.637.617.956 1.47.957 2.557 0 1.2-.473 2.142-1.418 2.823-.945.682-2.25 1.023-3.913 1.023M56.555 18.985c.953 0 1.736-.334 2.35-1.003.614-.669.92-1.533.92-2.594 0-1.044-.302-1.9-.908-2.57-.605-.668-1.393-1.003-2.362-1.003-.97 0-1.757.335-2.363 1.004-.605.669-.908 1.525-.908 2.57 0 1.06.307 1.924.92 2.593.614.67 1.398 1.004 2.35 1.003zm3.077 7.356v-6.18c-.856 1.239-2.189 1.859-3.998 1.859a5.407 5.407 0 0 1-2.92-.808 5.584 5.584 0 0 1-2.047-2.312c-.5-1.004-.751-2.158-.751-3.463a7.418 7.418 0 0 1 .739-3.316A6.13 6.13 0 0 1 52.75 9.7a5.325 5.325 0 0 1 3.053-.918c.793-.01 1.578.17 2.29.526a4.12 4.12 0 0 1 1.635 1.48l.048-1.614H63V26.34h-3.368z"/>
    </g>
</svg>
