<svg xmlns="http://www.w3.org/2000/svg" width="120" height="64" viewBox="0 0 120 64">
    <g fill="none" fill-rule="evenodd">
        <path fill="#343B52" d="M36.818 37.785l-6.216 3.974V24.646l-11.747 8.25-11.747-8.25V41.73L.91 37.765V12.71l17.923 12.587c.014.01.033.01.046 0L36.802 12.71l.016 25.076z"/>
        <path fill="#00CAFC" d="M18.864 56.738L.916 45.126.909 37.674 18.864 49.247 36.818 37.674 36.802 45.126zM31.43 16.779L18.914 8.42 6.32 16.794.909 12.957 18.922.908 36.818 12.957z"/>
        <path fill="#343B52" d="M54.728 36.14c1.788 0 3.257-.62 4.409-1.858 1.151-1.238 1.727-2.838 1.727-4.802 0-1.932-.568-3.518-1.704-4.756-1.137-1.238-2.614-1.857-4.432-1.858-1.818 0-3.296.62-4.432 1.858-1.136 1.238-1.704 2.824-1.704 4.756 0 1.964.576 3.564 1.727 4.802 1.151 1.239 2.62 1.858 4.409 1.857zM53 41.755c-1.931.028-3.83-.49-5.477-1.495-1.66-1.038-2.99-2.522-3.841-4.28-.94-1.857-1.41-3.994-1.41-6.41-.024-2.126.45-4.228 1.387-6.138.888-1.817 2.245-3.365 3.932-4.485 1.692-1.131 3.689-1.724 5.727-1.699 1.489-.02 2.961.314 4.295.974 1.253.619 2.314 1.567 3.068 2.74l.091-2.989h6.045v23.058h-6.045l-.09-2.945c-.767 1.19-1.854 2.139-3.137 2.74-1.427.645-2.98.963-4.545.93zM80.455 41.759c-1.686.008-3.367-.197-5-.612-1.576-.408-2.788-.944-3.637-1.608l.773-5.12c2.266 1.458 4.894 2.258 7.591 2.31 2.575 0 3.863-.649 3.863-1.948.03-.636-.28-1.24-.818-1.585-.545-.363-1.681-.785-3.409-1.269-2.727-.754-4.674-1.713-5.84-2.877-1.168-1.162-1.75-2.725-1.75-4.689 0-2.204.833-3.941 2.5-5.21 1.665-1.268 3.954-1.903 6.863-1.903 1.439.002 2.872.17 4.273.499 1.227.257 2.407.7 3.5 1.313l-.728 4.984c-1.02-.576-2.112-1.01-3.25-1.291-1.149-.307-2.333-.467-3.522-.476-2.212 0-3.319.589-3.319 1.767-.021.623.28 1.213.796 1.563.53.378 1.583.793 3.16 1.246 2.908.846 4.961 1.843 6.158 2.99 1.197 1.148 1.795 2.734 1.796 4.757 0 2.236-.887 3.988-2.66 5.256-1.772 1.268-4.22 1.903-7.34 1.903M107 36.24c1.788 0 3.258-.623 4.41-1.868 1.15-1.244 1.726-2.853 1.726-4.827 0-1.943-.567-3.537-1.704-4.782-1.136-1.244-2.614-1.867-4.432-1.867-1.818 0-3.295.622-4.431 1.867-1.136 1.245-1.704 2.84-1.704 4.782 0 1.974.575 3.583 1.727 4.827 1.15 1.246 2.62 1.868 4.408 1.868zm5.773 13.69V38.425c-1.607 2.307-4.106 3.46-7.5 3.46-1.93.028-3.83-.493-5.477-1.502-1.659-1.044-2.99-2.536-3.84-4.304-.94-1.867-1.41-4.015-1.41-6.444-.024-2.137.45-4.25 1.387-6.17.888-1.827 2.245-3.383 3.932-4.51 1.692-1.136 3.689-1.732 5.726-1.707 1.49-.02 2.962.316 4.296.98 1.253.621 2.314 1.574 3.068 2.754l.09-3.005h6.046v31.951h-6.318z"/>
        <path fill="#00CAFC" d="M115.783 53.56h1.17c.085 0 .157.067.165.154V55.072h1.552c.089 0 .162.072.166.162v.93c-.004.093-.07.161-.152.169l-1.566-.001-.001 2.059c-.025.291.043.583.194.832.168.185.412.278.659.253.257.002.512-.045.752-.138l.042-.017c.014-.004.029-.005.043-.005.083.001.152.064.163.147h.002l.117.923.001.017v.018c-.004.064-.044.12-.103.145-.169.075-.345.132-.525.17-.272.059-.55.088-.827.087-.685 0-1.193-.178-1.524-.532-.332-.354-.497-.896-.497-1.627l.001-2.333h-.921l-.016-.003c-.077-.016-.133-.085-.133-.165v-.923c0-.093.075-.169.168-.169h.903v-1.35c.005-.09.078-.16.167-.16zm-10.85 1.362c.358-.004.712.076 1.033.235.302.15.557.377.738.66l.018-.574c.015-.086.084-.145.166-.145h1.126l.053.01c.067.021.115.084.115.158l-.003 5.216c0 .093-.075.167-.168.167h-1.125c-.083 0-.154-.06-.166-.142l-.017-.567c-.223.338-.55.594-.93.733-.295.104-.606.154-.92.15-.464.006-.921-.12-1.317-.361-.4-.25-.72-.607-.924-1.03-.218-.446-.334-.934-.338-1.43l-.001-.114c-.005-.512.11-1.018.334-1.478.214-.437.541-.81.947-1.08.408-.272.888-.414 1.379-.408zm-16.485-2.707c.482-.04.968-.006 1.44.1.445.1.872.273 1.263.511.367.223.696.505.976.833.306.358.55.767.722 1.209.183.483.28.994.288 1.511.014.481-.05.96-.192 1.42-.068.22-.155.435-.257.64-.052.103-.107.203-.166.301-.054.09-.144.184-.125.297.013.047.033.092.059.133l.472.905.231.445c.015.029.023.06.023.093 0 .113-.09.204-.2.204h-1.224c-.068.01-.136 0-.2-.027-.082-.049-.12-.173-.162-.256l-.799-1.609c-.02-.047-.022-.099-.007-.147.022-.053.059-.099.106-.132 1.029-.926 1.241-2.477.5-3.654-.466-.742-1.244-1.222-2.106-1.3-.493-.047-.99.043-1.438.26-.857.41-1.45 1.236-1.577 2.192-.205 1.556.868 2.985 2.396 3.194.253.034.51.033.763-.003.061-.008.122-.02.183-.032.05-.016.102-.02.153-.008.054.019.098.059.122.111.093.186.184.375.277.562l.15.306c.054.072.074.164.055.252-.04.116-.156.135-.26.161-.124.031-.249.055-.375.075-.229.032-.459.052-.69.06-.24.006-.48-.01-.719-.047-.251-.036-.5-.094-.74-.174-.443-.144-.857-.364-1.228-.648-.377-.29-.7-.646-.953-1.051-.26-.415-.448-.872-.554-1.352-.106-.49-.135-.995-.087-1.495.047-.5.18-.989.393-1.443.212-.45.501-.86.855-1.206.712-.7 1.644-1.122 2.632-1.191zm6.58 2.707c.06.006.11.043.135.096l.976 3.638 1.134-3.633c.027-.06.086-.099.153-.1h1.02c.064.001.122.038.15.096l1.185 3.649.984-3.628c.022-.068.086-.115.158-.115h1.184v.002c.092 0 .166.073.166.164 0 .015-.002.03-.007.045l-1.72 5.137c-.028.059-.087.096-.151.096h-1.122c-.065-.001-.124-.039-.15-.097l-1.206-3.498-1.158 3.504c0 .001 0 .003-.002.004-.028.053-.084.085-.145.085h-1.1c-.066 0-.126-.04-.151-.1l-1.725-5.181c0-.09.075-.164.166-.164h1.227zm17.113.004c.547-.035 1.081.177 1.45.575.334.384.5.939.5 1.664l-.001 3.045-.009.05c-.021.064-.081.109-.153.109h-1.15c-.07-.001-.131-.045-.154-.11v-2.824c.002-.823-.318-1.234-.958-1.234-.313-.017-.615.11-.817.346-.21.284-.313.63-.291.98l-.001 2.731c-.023.065-.084.109-.154.11l-1.15-.001c-.09 0-.162-.072-.162-.16l.002-4.957c0-.088.072-.16.162-.16h1.094c.08.002.149.06.16.14l.008.514c.152-.26.377-.47.649-.607.303-.147.638-.22.975-.211zm-6.87 1.348c-.404-.014-.794.15-1.067.447-.302.353-.449.813-.406 1.276.01.38.155.744.41 1.026l.03.029c.586.569 1.523.556 2.093-.028.54-.654.556-1.593.04-2.264-.277-.316-.68-.494-1.1-.486z"/>
        <path fill="#343B52" d="M77.413 55.042c.106 0 .201.064.24.162l1.353 3.33 1.289-3.326c.038-.1.135-.166.242-.166h1.021c.144 0 .26.116.26.259 0 .036-.008.072-.022.105l-3.388 7.533c-.041.093-.134.153-.237.153h-.964c-.144 0-.26-.116-.26-.258 0-.04.009-.077.026-.112l1.27-2.62-2.113-4.696c-.059-.13 0-.283.131-.341.034-.015.07-.023.106-.023h1.046zm-6.12-2.843c.139 0 .25.11.25.245v3.325c.408-.55 1.018-.826 1.833-.826.472-.006.936.118 1.338.359.405.249.73.605.939 1.027.237.479.355 1.006.344 1.537.006.51-.11 1.015-.34 1.473-.216.436-.548.807-.96 1.076-.413.271-.901.413-1.399.407-.367.006-.731-.074-1.06-.233-.305-.147-.561-.375-.739-.658l-.015.48c-.004.132-.114.237-.25.237h-.984c-.138 0-.25-.11-.25-.245v-7.96c0-.135.112-.244.25-.244h1.043zm.613 4.508l-.03.03c-.56.664-.562 1.625-.005 2.293.277.296.673.459 1.083.445.41.014.806-.149 1.083-.445.557-.668.554-1.628-.006-2.294-.578-.582-1.53-.595-2.125-.029z"/>
    </g>
</svg>
