<svg xmlns="http://www.w3.org/2000/svg" width="100%" height="88" viewBox="0 0 168 88">
    <g fill="none" fill-rule="evenodd">
        <path fill="#FFF" d="M51.046 52.187L42.21 57.81V33.593L25.511 45.267 8.812 33.593V57.77L0 52.16V16.701l25.478 17.812c.02.014.046.014.066 0l25.479-17.812.023 35.486z"/>
        <path fill="#00CAFC" d="M25.523 79.007L.01 62.575 0 52.03l25.523 16.377L51.046 52.03l-.023 10.546zM43.293 22.197L25.542 10.51 7.679 22.218.005 16.853 25.553.007l25.383 16.846z"/>
        <path fill="#FFF" d="M76.505 49.858c2.542 0 4.63-.877 6.268-2.629 1.637-1.752 2.455-4.017 2.455-6.795 0-2.734-.807-4.978-2.423-6.731-1.615-1.752-3.715-2.628-6.3-2.628-2.584 0-4.684.875-6.3 2.628-1.615 1.753-2.422 3.997-2.422 6.731 0 2.778.818 5.043 2.455 6.795 1.637 1.753 3.726 2.63 6.267 2.629zm-2.455 7.949a14.615 14.615 0 0 1-7.786-2.116 14.713 14.713 0 0 1-5.46-6.058c-1.335-2.628-2.003-5.652-2.003-9.071a19.147 19.147 0 0 1 1.971-8.686 16.149 16.149 0 0 1 5.59-6.347 14.382 14.382 0 0 1 8.14-2.404 13.43 13.43 0 0 1 6.106 1.379 10.92 10.92 0 0 1 4.362 3.878l.129-4.23h8.593v32.63H85.1l-.13-4.168a10.703 10.703 0 0 1-4.458 3.879 14.973 14.973 0 0 1-6.461 1.314zM113.077 57.81a28.391 28.391 0 0 1-7.108-.866c-2.24-.577-3.963-1.335-5.169-2.276l1.099-7.245a20.744 20.744 0 0 0 10.79 3.27c3.661 0 5.492-.919 5.493-2.757.043-.9-.4-1.755-1.164-2.244-.775-.512-2.39-1.11-4.846-1.795-3.877-1.068-6.644-2.425-8.303-4.071-1.658-1.645-2.488-3.857-2.488-6.636 0-3.12 1.185-5.578 3.554-7.373 2.369-1.795 5.622-2.693 9.757-2.693a26.78 26.78 0 0 1 6.074.705 17.55 17.55 0 0 1 4.976 1.86l-1.035 7.052a18.38 18.38 0 0 0-4.62-1.827 20.09 20.09 0 0 0-5.007-.673c-3.144 0-4.717.833-4.717 2.5-.03.881.396 1.716 1.13 2.212.754.535 2.25 1.123 4.492 1.763 4.135 1.197 7.054 2.608 8.755 4.232 1.701 1.625 2.552 3.869 2.552 6.732 0 3.164-1.26 5.643-3.78 7.437-2.52 1.795-5.998 2.693-10.435 2.693M150.813 50c2.541 0 4.63-.881 6.267-2.643 1.637-1.761 2.455-4.038 2.455-6.831 0-2.75-.807-5.005-2.422-6.767-1.615-1.761-3.716-2.642-6.3-2.642-2.584 0-4.685.88-6.3 2.642-1.615 1.762-2.422 4.018-2.422 6.767 0 2.793.818 5.07 2.455 6.831 1.636 1.762 3.725 2.643 6.267 2.643zm8.206 19.372V53.093c-2.284 3.265-5.838 4.898-10.661 4.898a14.556 14.556 0 0 1-7.786-2.127 14.766 14.766 0 0 1-5.46-6.09c-1.335-2.642-2.003-5.682-2.003-9.12a19.333 19.333 0 0 1 1.97-8.732 16.202 16.202 0 0 1 5.59-6.38 14.326 14.326 0 0 1 8.14-2.417c2.117-.028 4.21.447 6.107 1.386 1.782.88 3.29 2.229 4.361 3.899l.13-4.253H168v45.215h-8.981z"/>
        <path fill="#00CAFC" d="M168 84.195v.024a.24.24 0 0 1-.147.206c-.24.106-.49.187-.748.24a5.43 5.43 0 0 1-1.175.123c-.973 0-1.695-.25-2.166-.752-.471-.501-.707-1.269-.706-2.302l.001-3.302h-1.309a.24.24 0 0 1-.211-.238v-1.306c0-.132.106-.24.237-.24l1.284.001v-1.91a.238.238 0 0 1 .237-.228h1.663c.122 0 .224.094.236.217v1.923h2.206a.238.238 0 0 1 .237.24v1.305l-.001.013a.238.238 0 0 1-.216.225h-2.227l-.001 2.913c-.036.413.061.825.276 1.178.239.261.586.393.937.357a2.926 2.926 0 0 0 1.128-.218.238.238 0 0 1 .293.2h.003l.166 1.307.002.024zm-37.863-1.746l.671 1.282.33.629c.02.04.03.086.031.131 0 .16-.127.29-.285.29h-1.74a.538.538 0 0 1-.282-.04c-.118-.068-.173-.244-.23-.36l-1.137-2.278a.302.302 0 0 1-.01-.208.426.426 0 0 1 .15-.186 4.052 4.052 0 0 0 .712-5.172 3.962 3.962 0 0 0-2.994-1.84 3.88 3.88 0 0 0-2.044.367 4.016 4.016 0 0 0-2.242 3.104c-.291 2.2 1.233 4.224 3.405 4.519a3.96 3.96 0 0 0 1.345-.05.413.413 0 0 1 .218-.01.293.293 0 0 1 .173.157c.133.263.263.53.394.794l.214.434a.442.442 0 0 1 .078.356c-.058.164-.222.191-.37.228a5.888 5.888 0 0 1-.533.106 9.019 9.019 0 0 1-.98.084 5.677 5.677 0 0 1-1.023-.065 6.195 6.195 0 0 1-1.053-.246 5.87 5.87 0 0 1-1.745-.918 5.694 5.694 0 0 1-1.355-1.487 6.059 6.059 0 0 1-.787-1.913 6.857 6.857 0 0 1-.123-2.115c.066-.709.255-1.4.558-2.042a5.944 5.944 0 0 1 4.956-3.393 6.846 6.846 0 0 1 2.048.14 6.03 6.03 0 0 1 1.795.725c.521.316.99.714 1.387 1.178a5.966 5.966 0 0 1 1.027 1.711c.26.683.398 1.407.41 2.14a6.032 6.032 0 0 1-.874 3.34c-.077.126-.206.26-.179.42.018.067.047.13.084.188zm10.413-.71l1.399-5.134a.237.237 0 0 1 .225-.163h1.683v.002a.234.234 0 0 1 .226.297l-2.447 7.27a.234.234 0 0 1-.213.135h-1.595a.236.236 0 0 1-.214-.138l-1.713-4.95-1.646 4.96-.003.005a.233.233 0 0 1-.207.12h-1.563a.235.235 0 0 1-.216-.142l-2.45-7.331c0-.128.105-.232.234-.232h1.744c.084.009.157.06.192.135l1.386 5.149 1.613-5.14a.24.24 0 0 1 .217-.142h1.45c.091 0 .174.053.213.135l1.685 5.164zm9.367-2.7a2.029 2.029 0 0 0-1.562-.687 1.971 1.971 0 0 0-1.517.632c-.43.5-.638 1.151-.578 1.806a2.245 2.245 0 0 0 .626 1.492 2.115 2.115 0 0 0 2.976-.04 2.56 2.56 0 0 0 .055-3.204zm.475-1.334l.025-.813.001-.008a.24.24 0 0 1 .236-.197v-.001h1.6v.002c.131 0 .238.106.238.237l-.003 7.381c0 .131-.107.237-.239.237h-1.6a.238.238 0 0 1-.236-.202l-.024-.802c-.317.478-.78.841-1.321 1.038-.42.146-.863.218-1.308.21-.66.01-1.31-.167-1.873-.51a3.535 3.535 0 0 1-1.313-1.458 4.68 4.68 0 0 1-.482-2.184 4.622 4.622 0 0 1 .475-2.091 3.883 3.883 0 0 1 1.346-1.528 3.456 3.456 0 0 1 1.96-.578 3.231 3.231 0 0 1 1.468.332 2.63 2.63 0 0 1 1.05.935zm5.408-.832l.012.728c.216-.367.536-.666.922-.858.431-.208.907-.31 1.387-.3.778-.05 1.536.25 2.061.815.474.543.71 1.328.71 2.355l-.002 4.308a.227.227 0 0 1-.23.225h-1.633a.235.235 0 0 1-.22-.155l.001-3.997c.002-1.164-.453-1.746-1.362-1.747a1.433 1.433 0 0 0-1.163.49 2.099 2.099 0 0 0-.413 1.388l-.002 3.865a.232.232 0 0 1-.218.154h-1.636a.228.228 0 0 1-.23-.226l.004-7.016c0-.124.103-.225.23-.225v-.001h1.555v.002c.115 0 .212.083.227.195z"/>
        <path fill="#FFF" d="M102.352 82.88c.575.02 1.13-.21 1.517-.63a2.537 2.537 0 0 0-.008-3.245 2.121 2.121 0 0 0-2.976-.04l-.041.04a2.535 2.535 0 0 0-.008 3.246c.388.42.942.65 1.516.63zm.483 1.908a3.272 3.272 0 0 1-1.486-.33 2.507 2.507 0 0 1-1.034-.931l-.02.679a.349.349 0 0 1-.351.336h-1.378a.348.348 0 0 1-.35-.347V72.931c0-.192.156-.347.35-.347h1.46c.194 0 .351.155.351.347v4.706c.57-.78 1.426-1.169 2.567-1.169.66-.01 1.31.167 1.874.508a3.533 3.533 0 0 1 1.314 1.453c.332.677.498 1.423.482 2.176a4.576 4.576 0 0 1-.474 2.084 3.885 3.885 0 0 1-1.345 1.522 3.475 3.475 0 0 1-1.96.577zm6.926-1.019l-2.96-6.646a.366.366 0 0 1 .332-.515h1.465c.148 0 .282.09.337.229l1.894 4.711 1.805-4.706a.364.364 0 0 1 .34-.234h1.43a.365.365 0 0 1 .332.515l-4.744 10.66a.363.363 0 0 1-.332.217h-1.35a.364.364 0 0 1-.329-.524l1.78-3.707z"/>
    </g>
</svg>
