<svg xmlns="http://www.w3.org/2000/svg" width="100%" height="84" viewBox="0 0 165 84">
    <g fill="none" fill-rule="evenodd">
        <path fill="#FFF" d="M49.563 50.93l-8.58 5.488V32.784L24.77 44.177 8.556 32.784v23.595L0 50.903V16.299l24.738 17.383c.019.013.045.013.064 0L49.54 16.3l.023 34.631z"/>
        <path fill="#00CAFC" d="M24.782 77.104L.01 61.068 0 50.776 24.782 66.76l24.78-15.983-.022 10.292zM42.035 21.662L24.799 10.257 7.456 21.683.005 16.447 24.81.007l24.645 16.44z"/>
        <path fill="#FFF" d="M74.282 48.657c2.468 0 4.496-.855 6.086-2.565 1.589-1.71 2.383-3.92 2.383-6.632 0-2.668-.784-4.858-2.352-6.569-1.568-1.71-3.607-2.565-6.117-2.565s-4.548.855-6.117 2.565c-1.568 1.71-2.352 3.9-2.352 6.57 0 2.71.795 4.921 2.384 6.63 1.59 1.712 3.617 2.567 6.085 2.566zm-2.384 7.758a14.135 14.135 0 0 1-7.56-2.065 14.334 14.334 0 0 1-5.3-5.912c-1.297-2.565-1.945-5.516-1.945-8.853a18.765 18.765 0 0 1 1.913-8.477 15.735 15.735 0 0 1 5.427-6.194 13.913 13.913 0 0 1 7.904-2.346 12.985 12.985 0 0 1 5.929 1.346 10.62 10.62 0 0 1 4.234 3.785l.126-4.13h8.344v31.845h-8.344l-.126-4.067a10.408 10.408 0 0 1-4.328 3.785 14.474 14.474 0 0 1-6.274 1.283zM109.791 56.418a27.433 27.433 0 0 1-6.901-.845c-2.175-.563-3.848-1.304-5.02-2.221l1.067-7.071a20.068 20.068 0 0 0 10.478 3.191c3.554 0 5.332-.897 5.332-2.69a2.466 2.466 0 0 0-1.13-2.19c-.752-.5-2.32-1.084-4.705-1.752-3.764-1.042-6.451-2.367-8.061-3.973-1.61-1.606-2.416-3.764-2.416-6.476 0-3.045 1.15-5.444 3.451-7.196 2.3-1.752 5.458-2.628 9.473-2.628 1.986.003 3.965.234 5.898.688 1.693.356 3.323.968 4.83 1.815l-1.004 6.883a17.793 17.793 0 0 0-4.485-1.783 19.413 19.413 0 0 0-4.862-.658c-3.053 0-4.58.814-4.58 2.44-.03.86.385 1.676 1.098 2.16.731.521 2.184 1.095 4.36 1.72 4.016 1.168 6.849 2.545 8.501 4.13 1.652 1.585 2.478 3.775 2.478 6.57 0 3.087-1.223 5.506-3.67 7.257-2.446 1.753-5.824 2.629-10.132 2.629M146.43 48.795c2.468 0 4.496-.86 6.086-2.579 1.589-1.718 2.383-3.94 2.383-6.666 0-2.683-.784-4.885-2.352-6.604-1.568-1.72-3.608-2.579-6.117-2.579-2.51 0-4.548.86-6.116 2.579-1.569 1.72-2.353 3.92-2.353 6.604 0 2.726.795 4.948 2.384 6.666 1.589 1.72 3.617 2.58 6.085 2.58zm7.968 18.906V51.814c-2.218 3.187-5.668 4.78-10.351 4.78a14.079 14.079 0 0 1-7.56-2.075 14.386 14.386 0 0 1-5.301-5.944c-1.297-2.578-1.945-5.545-1.945-8.9-.034-2.951.62-5.87 1.913-8.521a15.787 15.787 0 0 1 5.427-6.227 13.859 13.859 0 0 1 7.904-2.359 12.924 12.924 0 0 1 5.93 1.353c1.73.859 3.193 2.175 4.234 3.805l.125-4.151h8.344V67.7h-8.72z"/>
        <path fill="#00CAFC" fill-rule="nonzero" d="M113.265 84c-.643 0-.965-.113-.965-.338 0-.034.024-.13.07-.288l3.964-10.963c.07-.214.368-.321.894-.321H118c.514 0 .813.107.894.321l3.964 10.963a.998.998 0 0 1 .052.288c0 .225-.28.338-.841.338h-.544c-.514 0-.813-.107-.894-.321l-.807-2.318h-4.49l-.806 2.318c-.082.214-.34.321-.772.321h-.491zm5.892-4.534l-1.28-3.722a5.981 5.981 0 0 1-.245-1.049h-.07c-.012.068-.041.214-.088.44a3.83 3.83 0 0 1-.175.609l-1.316 3.722h3.174zm5.928 4.5c-.222 0-.386-.05-.491-.152-.105-.102-.158-.26-.158-.474V72.58c0-.327.31-.49.93-.49h.438c.327 0 .564.039.71.118.147.079.22.203.22.372v9.491h4.156c.164 0 .28.06.35.178.07.118.106.302.106.55v.44c0 .248-.035.431-.105.55-.07.118-.187.177-.351.177h-5.805zm8.628.034c-.327 0-.564-.04-.71-.118a.394.394 0 0 1-.219-.373V72.75c0-.214.05-.372.149-.473.1-.102.26-.153.482-.153h3.648c1.076 0 2.023.249 2.841.745.819.496 1.228 1.438 1.228 2.825 0 .97-.237 1.726-.71 2.267-.474.542-1.006.905-1.596 1.091-.59.187-1.12.28-1.588.28h-2.157v4.178c0 .327-.31.491-.93.491h-.438zm3.333-6.581c.455 0 .859-.127 1.21-.38.35-.255.526-.703.526-1.346 0-.62-.181-1.054-.544-1.303-.362-.248-.79-.372-1.28-.372h-1.877v3.4h1.965zM143.85 84c-.62 0-.93-.164-.93-.49V72.58c0-.327.31-.49.93-.49h.456c.62 0 .93.163.93.49v4.382h5.296V72.58c0-.327.31-.49.93-.49h.455c.62 0 .93.163.93.49v10.93c0 .326-.31.49-.93.49h-.456c-.62 0-.93-.164-.93-.49v-4.636h-5.296v4.635c0 .327-.31.491-.929.491h-.456zm11.504 0c-.643 0-.964-.113-.964-.338 0-.034.023-.13.07-.288l3.964-10.963c.07-.214.368-.321.894-.321h.772c.514 0 .812.107.894.321l3.963 10.963a.998.998 0 0 1 .053.288c0 .225-.28.338-.842.338h-.543c-.515 0-.813-.107-.895-.321l-.807-2.318h-4.49l-.806 2.318c-.082.214-.339.321-.771.321h-.492zm5.893-4.534l-1.28-3.722a5.981 5.981 0 0 1-.246-1.049h-.07c-.012.068-.04.214-.088.44a3.83 3.83 0 0 1-.175.609l-1.315 3.722h3.174z"/>
    </g>
</svg>
