<svg height="22" viewBox="0 0 20 22" width="20" xmlns="http://www.w3.org/2000/svg"><path d="m9.01126408 21c0 .6-.40050063 1-1.00125156 1h-5.00625783c-1.70212766 0-3.00375469-1.3-3.00375469-3v-16c0-1.7 1.30162703-3 3.00375469-3h5.00625783c.60075093 0 1.00125156.4 1.00125156 1s-.40050063 1-1.00125156 1h-5.00625783c-.60075094 0-1.00125156.4-1.00125156 1v16c0 .6.40050062 1 1.00125156 1h5.00625783c.60075093 0 1.00125156.4 1.00125156 1zm10.91364202-9.6c.1001252-.2.1001252-.5 0-.8-.1001251-.1-.1001251-.2-.2002503-.3l-4.0050062-4c-.4005007-.4-1.0012516-.4-1.4017522 0-.4005007.4-.4005007 1 0 1.4l2.3028786 2.3h-9.61201505c-.60075094 0-1.00125156.4-1.00125156 1s.40050062 1 1.00125156 1h9.61201505l-2.3028786 2.3c-.4005007.4-.4005007 1 0 1.4.2002503.2.5006258.3.7008761.3s.5006257-.1.7008761-.3l4.0050062-4c.1001252-.1.2002503-.2.2002503-.3z"/></svg>