<svg xmlns="http://www.w3.org/2000/svg" width="83" height="21" viewBox="0 0 83 21">
    <g fill="#C8CBD3" fill-rule="nonzero">
        <path d="M42.675 7.531c0 .048 0 .072-.024.12 0 .025 0 .025-.024.049l-1.775 5.383-2.303 7c0 .024-.024.072-.024.096-.072.145-.191.242-.36.242H35.48a.37.37 0 0 1-.36-.242c0-.024-.024-.048-.024-.048l-2.039-5.962-.648-1.883-.024-.096-.168-.507-.575 1.762-2.16 6.662-.047.12a.413.413 0 0 1-.36.218h-2.639a.37.37 0 0 1-.36-.242c0-.024-.024-.048-.024-.072l-2.35-7.145-1.728-5.214-.048-.12v-.073c0-.217.168-.41.408-.41h2.95c.145.024.265.097.313.241l.024.121 1.319 4.972.816 3.09c0 .024 0 .048.024.048l.168.628 1.103-3.597 1.583-5.19c0-.023.024-.048.024-.072a.42.42 0 0 1 .36-.241h2.447c.168 0 .288.097.36.241l.024.097 2.83 8.81.168-.651v-.049l1.176-4.393.983-3.645.024-.072v-.048a.39.39 0 0 1 .384-.29h2.855a.367.367 0 0 1 .407.362zM56.205 7.145h-2.663a.389.389 0 0 0-.384.338v.12l-.048 1.28a4.254 4.254 0 0 0-1.75-1.57 5.522 5.522 0 0 0-2.448-.554c-1.199 0-2.302.313-3.262.965a6.447 6.447 0 0 0-2.23 2.583c-.529 1.062-.793 2.245-.793 3.524v.266a8.273 8.273 0 0 0 .792 3.427c.528 1.062 1.271 1.883 2.183 2.462.912.58 1.967.87 3.119.87.815 0 1.535-.122 2.182-.363.144-.048.288-.12.408-.169a4.542 4.542 0 0 0 1.8-1.569l.047 1.255v.097a.389.389 0 0 0 .384.338h2.663a.406.406 0 0 0 .408-.41V7.554c-.024-.241-.192-.41-.408-.41zm-3.982 9.39c-.648.724-1.487 1.062-2.519 1.062-1.031 0-1.847-.363-2.519-1.063-.6-.651-.911-1.472-.983-2.462v-.313c0-1.11.336-2.028.983-2.752.648-.7 1.488-1.062 2.519-1.062 1.032 0 1.871.362 2.519 1.062.024.024.048.048.072.096.6.7.887 1.594.887 2.656.024 1.134-.311 2.051-.96 2.775zM69.95 8.159c-.815-.966-2.015-1.449-3.574-1.449-.912 0-1.703.17-2.399.531a3.72 3.72 0 0 0-1.583 1.521l-.024-1.207V7.46a.389.389 0 0 0-.384-.338H59.3a.406.406 0 0 0-.407.41v12.48c0 .217.168.41.407.41h2.831c.192 0 .36-.17.384-.362v-6.783c0-1.062.24-1.883.72-2.462.48-.58 1.151-.87 2.015-.87 1.583 0 2.35 1.039 2.35 3.115v7c0 .193.144.338.312.386h2.902a.406.406 0 0 0 .409-.41v-7.652c-.048-1.859-.456-3.259-1.272-4.224zM20.918 20.083l-1.415-2.68-.384-.724s0-.024-.024-.024a.5.5 0 0 1 .048-.483 10.158 10.158 0 0 0 1.703-5.117v-.072-.217-.29-.266-.265c-.024-.7-.12-1.352-.264-1.98a8.013 8.013 0 0 0-.48-1.52c-.168-.386-.336-.773-.551-1.135-.048-.072-.072-.144-.12-.217-.936-1.569-2.207-2.8-3.767-3.645C14.081.58 12.354.17 10.435.17c-1.056 0-2.039.12-2.975.386-.84.242-1.655.58-2.398 1.038-.6.362-1.152.773-1.656 1.207a10.116 10.116 0 0 0-1.51 1.69 7.662 7.662 0 0 0-.553.869 10.553 10.553 0 0 0-1.08 2.896 9.84 9.84 0 0 0-.215 1.762V10.814c0 .12 0 .265.024.386 0 .072 0 .169.024.241v.025c.096 1.11.336 2.172.72 3.137.024.049.048.097.072.17.215.482.455.94.72 1.375a9.106 9.106 0 0 0 1.319 1.69l.215.217a9.898 9.898 0 0 0 3.167 2.028c.048.024.072.024.12.048.696.266 1.415.459 2.159.58.576.096 1.175.144 1.799.144h.336c.144 0 .36-.024.6-.024a9.496 9.496 0 0 0 2.039-.362.454.454 0 0 0 .311-.314c.024-.048.024-.096.024-.145 0-.072-.024-.144-.048-.217l-1.151-2.317c-.096-.193-.312-.314-.528-.242-.48.121-.983.17-1.511.17-.216 0-.432 0-.648-.025l-.503-.072a6.665 6.665 0 0 1-.936-.241 6.602 6.602 0 0 1-1.751-.87 6.874 6.874 0 0 1-1.535-1.472c-.24-.338-.48-.676-.672-1.062a6.12 6.12 0 0 1-.456-1.159 7.174 7.174 0 0 1-.264-1.906v-.121c.024-1.062.264-2.052.72-2.92.024-.05.048-.073.048-.097.096-.193.216-.387.336-.58.264-.41.575-.796.935-1.134a7.023 7.023 0 0 1 2.255-1.473.34.34 0 0 1 .144-.048c.312-.12.6-.217.936-.265.287-.049.575-.097.863-.121h.984c.072 0 .144.024.216.024.096 0 .192.024.311.048.288.049.552.097.816.17.024 0 .072.023.096.023a6.718 6.718 0 0 1 4.054 3.404c.216.41.384.845.504 1.327.144.58.24 1.16.24 1.787v.048c0 2.028-.912 3.838-2.327 5.093a.524.524 0 0 1-.12.097.579.579 0 0 0-.12.338c0 .072.024.12.048.193l.024.072 1.247 2.486.168.314.096.169.624 1.231c.024.024.024.048.048.097a.509.509 0 0 0 .36.169h3.214c.456-.121.696-.507.504-.845zM82.904 19.817v-.048l-.288-2.197a.434.434 0 0 0-.384-.362c-.024 0-.072 0-.096.024-.024.025-.072.025-.096.049a4.967 4.967 0 0 1-1.799.338c-.743 0-1.271-.193-1.583-.604-.312-.41-.456-1.062-.456-1.98v-4.9h3.766c.192-.023.36-.168.36-.385V7.53v-.024c0-.217-.192-.386-.407-.386h-3.719V3.886a.416.416 0 0 0-.407-.362h-2.807c-.216 0-.384.17-.408.386v3.21h-2.159a.406.406 0 0 0-.408.411v2.197c0 .193.144.362.312.386h2.255v5.552c0 1.737.408 3.04 1.2 3.886.791.845 2.015 1.255 3.646 1.255a8.99 8.99 0 0 0 1.99-.217c.48-.121.912-.242 1.272-.41a.363.363 0 0 0 .24-.339c-.024.025-.024 0-.024-.024 0 .024 0 .024 0 0z"/>
    </g>
</svg>
