<svg height="24" viewBox="0 0 24 24" width="24" xmlns="http://www.w3.org/2000/svg"><path d="m12 8c-2.2 0-4 1.8-4 4s1.8 4 4 4 4-1.8 4-4-1.8-4-4-4zm0 6c-1.1 0-2-.9-2-2s.9-2 2-2 2 .9 2 2-.9 2-2 2zm8.3 1.4c.1-.2.3-.4.7-.4 1.7 0 3-1.3 3-3s-1.3-3-3-3h-.2c-.2 0-.4-.1-.5-.3 0-.1 0-.1-.1-.2-.1-.2-.1-.5.2-.8 1.2-1.2 1.2-3.1 0-4.2-.6-.6-1.3-.9-2.1-.9s-1.6.3-2.2.9c-.2.2-.5.2-.7.1-.2 0-.4-.3-.4-.6 0-1.7-1.3-3-3-3s-3 1.3-3 3v.2c0 .2-.1.4-.3.5-.1 0-.1 0-.2.1-.2.1-.5 0-.8-.2-1.2-1.2-3.1-1.2-4.2 0-1.2 1.2-1.2 3.1.1 4.3.2.2.2.5.1.8-.1.2-.4.4-.7.4-1.7 0-3 1.3-3 3s1.3 3 3 3h.2c.3 0 .5.2.6.4s.1.5-.2.8c-.6.6-.9 1.3-.9 2.1s.3 1.5.9 2.1c1.2 1.2 3.1 1.2 4.3-.1.2-.2.5-.2.8-.1s.4.3.4.7c0 1.7 1.3 3 3 3s3-1.3 3-3v-.2c0-.3.2-.5.4-.6s.5-.1.8.2c1.2 1.2 3.1 1.2 4.2 0 1.2-1.2 1.2-3.1-.1-4.3-.1-.2-.2-.5-.1-.7zm-1.8-.8c-.4 1-.2 2.1.6 3 .2.2.3.4.3.7s-.1.5-.3.7-.4.3-.7.3c-.3 0-.5-.1-.8-.4-.8-.8-1.9-1-2.9-.5-1 .4-1.6 1.4-1.6 2.4v.2c0 .6-.4 1-1 1s-1-.4-1-1v-.1c0-1.1-.7-2-1.7-2.4-.3-.2-.7-.2-1.1-.2-.7 0-1.4.3-1.9.8-.4.4-1 .4-1.4 0-.2-.2-.3-.4-.3-.7s.1-.5.4-.8c.8-.8 1-1.9.5-2.9-.4-1-1.4-1.6-2.4-1.6h-.2c-.6 0-1-.4-1-1s.4-1 1-1h.1c1.1 0 2-.7 2.4-1.7s.2-2.1-.6-3c-.4-.4-.4-1 0-1.4s1-.4 1.5.1c.7.7 1.8.9 2.7.6.1 0 .2 0 .3-.1 1-.4 1.6-1.4 1.6-2.4v-.2c0-.6.4-1 1-1s1 .4 1 1.1c0 1.1.6 2 1.6 2.4s2.1.2 3-.6c.2-.2.4-.3.7-.3s.5.1.7.3c.4.4.4 1-.1 1.5-.7.7-.9 1.8-.6 2.7 0 .1 0 .2.1.3.4 1 1.4 1.6 2.4 1.6h.2c.6 0 1 .4 1 1s-.4 1-1.1 1c-1 0-2 .6-2.4 1.6z" transform=""/></svg>