<svg xmlns="http://www.w3.org/2000/svg" width="339" height="284" viewBox="0 0 339 284">
    <g fill="none" fill-rule="evenodd">
        <g fill-rule="nonzero">
            <path fill="#FFF" stroke="#353C52" stroke-width="8" d="M324.956 29.09L224.51 4h-6.278L117.79 29.09C112.767 30.346 109 35.365 109 41.637V142c0 81.545 102.956 134.236 107.978 136.745 1.65.718 2.51 1.255 5.022 1.255 2.511 0 3.195-.382 5.022-1.255C232.044 276.236 335 223.545 335 142V41.636c0-6.272-3.767-11.29-10.044-12.545z"/>
            <path fill="#FFF" stroke="#00CAFC" stroke-linecap="round" stroke-linejoin="round" stroke-width="8" d="M218.9 29l-82.667 20.545C132.1 50.573 129 54.682 129 59.818V142c0 66.773 84.733 109.918 88.867 111.973"/>
            <path fill="#252A39" d="M257.583 108.833H252.5v-15.25c0-16.775-13.725-30.5-30.5-30.5s-30.5 13.725-30.5 30.5v15.25h-5.083c-8.642 0-15.25 6.609-15.25 15.25v35.584c0 8.641 6.608 15.25 15.25 15.25h71.166c8.642 0 15.25-6.609 15.25-15.25v-35.584c0-8.641-6.608-15.25-15.25-15.25zm-55.916-15.25c0-11.183 9.15-20.333 20.333-20.333 11.183 0 20.333 9.15 20.333 20.333v15.25h-40.666v-15.25zm61 66.084c0 3.05-2.034 5.083-5.084 5.083h-71.166c-3.05 0-5.084-2.033-5.084-5.083v-35.584c0-3.05 2.034-5.083 5.084-5.083h71.166c3.05 0 5.084 2.033 5.084 5.083v35.584z"/>
            <path fill="#4F6B8E" d="M262.667 159.667c0 3.05-2.034 5.083-5.084 5.083h-71.166c-3.05 0-5.084-2.033-5.084-5.083v-35.584c0-3.05 2.034-5.083 5.084-5.083h71.166c3.05 0 5.084 2.033 5.084 5.083v35.584z"/>
        </g>
        <g transform="translate(4 173)">
            <path fill="#00CAFC" d="M63 24.154L76.846 38 93 21.846 79.154 8z"/>
            <path stroke="#252A39" stroke-linecap="round" stroke-linejoin="round" stroke-width="8" d="M43.381 43.18a25.6 25.6 0 0 1-11.407 42.962 25.594 25.594 0 0 1-24.79-6.762c-9.699-10.044-9.56-26.009.313-35.883 9.873-9.873 25.836-10.012 35.88-.311l.004-.005zM44 43L86.52.768 44 43zm19-18.846L76.846 38 93 21.846 79.154 8 63 24.154z"/>
            <circle cx="26" cy="62" r="22" fill="#00CAFC"/>
            <path fill="#F4F6FA" stroke="#252A39" stroke-width="6" d="M33.915 53.238c3.076 2.91 4.29 7.177 3.181 11.18-1.11 4.005-4.372 7.132-8.55 8.195-4.177 1.063-8.629-.1-11.665-3.05-4.565-4.529-4.5-11.729.147-16.182 4.646-4.453 12.158-4.515 16.884-.14l.003-.003z"/>
        </g>
    </g>
</svg>
