<svg xmlns="http://www.w3.org/2000/svg" width="224" height="114" viewBox="0 0 224 114">
    <g fill="#40AE6C" fill-rule="evenodd">
        <path fill-rule="nonzero" d="M221.417.938a4.71 4.71 0 0 0-5.167 0l-33.583 19.545L143.4.938h-.517c-.516-.514-1.033-.514-1.55-.514-.516 0-1.033 0-2.066.514h-.517-.517l-36.166 20.573c-1.034 1.029-2.067 2.572-2.067 4.63v82.292c0 2.057 1.033 3.6 2.583 4.629a4.71 4.71 0 0 0 5.167 0l33.583-19.545 38.75 19.545c1.034.514 1.55.514 2.584.514.516 0 1.033 0 1.55-.514h1.033l36.167-20.573c1.55-1.029 2.583-2.572 2.583-4.63V5.568c0-2.057-1.033-3.6-2.583-4.629zM146.5 13.796l31 15.43v70.978l-31-15.43V13.796zm-36.167 15.43l25.834-14.915v70.463l-25.834 14.915V29.226zm103.334 55.548l-25.834 14.915V29.226l25.834-14.915v70.463zM81 68.333l-20 20c-.667.667-1.333 1-2.333 1-1 0-1.667-.333-2.334-1C55 87 55 85 56.333 83.667l14.334-14.334H25.333C23.333 69.333 22 68 22 66s1.333-3.333 3.333-3.333h45.334L56.333 48.333C55 47 55 45 56.333 43.667c1.334-1.334 3.334-1.334 4.667 0l20 20c.333.333.667.666.667 1 .333.666.333 1.666 0 2.666 0 .334-.334.667-.667 1z"/>
        <circle cx="14" cy="66" r="3"/>
        <circle cx="25" cy="66" r="3"/>
        <circle cx="3" cy="66" r="3"/>
    </g>
</svg>
