<svg xmlns="http://www.w3.org/2000/svg" width="179" height="452" viewBox="0 0 179 452">
    <defs>
        <linearGradient id="a" x1="50.001%" x2="50.001%" y1="49.656%" y2="127.672%">
            <stop offset="0%" stop-color="#FFF"/>
            <stop offset="100%" stop-color="#1C1C1A"/>
        </linearGradient>
    </defs>
    <g fill="none" fill-rule="evenodd">
        <path fill="#00CAFC" d="M24.688 259.962L82.3 226l64.39 40.755-61 49.245z"/>
        <path fill="url(#a)" d="M178.688 234.379l-85.41-57.368a5.935 5.935 0 0 0-6.61-.011L.688 234.379l1.445 21.065L74.816 307l30.75-.084 71.766-51.472 1.356-21.065z"/>
        <path fill="#00CAFC" d="M73.688 315h30V208h-30z"/>
        <path fill="#00CAFC" d="M151.977 252.923l-59.05-39.162a5.418 5.418 0 0 0-5.982-.007L27.507 253 .688 234.112l85.978-57.115a5.954 5.954 0 0 1 6.61.01l85.412 57.105-26.71 18.811z"/>
        <path fill="#FFFAFA" d="M105.35 128.689c.407.416 1.081.414 1.485-.004l4.737-4.89c3.195-3.296 6.388-6.593 9.581-9.89 1.833-1.889 3.911-3.649 5.552-5.724.288-.365.562-.738.82-1.124A14.789 14.789 0 0 0 130 98.881C130 90.66 123.27 84 114.967 84c-3.36 0-6.464 1.093-8.967 2.937A15.07 15.07 0 0 0 97.033 84C88.73 84 82.002 90.66 82 98.877c0 3.426 1.264 6.73 3.422 9.393 1.14 1.409 2.544 2.638 3.814 3.94 3.048 3.115 6.095 6.231 9.142 9.348l6.972 7.13z"/>
        <path fill="#2C3B51" d="M96.984 85.702c-7.304 0-13.248 5.888-13.25 13.125 0 2.935 1.077 5.881 3.032 8.297.718.887 1.563 1.712 2.459 2.585.416.404.846.823 1.262 1.25l15.602 15.975 13.8-14.259c.634-.657 1.3-1.3 1.943-1.92 1.281-1.24 2.493-2.407 3.516-3.704.268-.34.515-.68.735-1.01a12.964 12.964 0 0 0 2.18-7.21c0-7.241-5.941-13.129-13.247-13.129-2.87 0-5.604.896-7.9 2.59a1.882 1.882 0 0 1-2.232 0 13.218 13.218 0 0 0-7.9-2.59zM106.09 131a2.93 2.93 0 0 1-2.086-.877l-16.2-16.589c-.386-.396-.782-.78-1.2-1.187-.933-.91-1.897-1.85-2.753-2.907-2.484-3.07-3.853-6.84-3.851-10.613C80 89.548 87.62 82 96.984 82c3.227 0 6.317.884 9.016 2.566A16.95 16.95 0 0 1 115.016 82C124.381 82 132 89.55 132 98.83c0 3.302-.967 6.5-2.798 9.25-.275.413-.582.834-.91 1.253-1.18 1.491-2.538 2.803-3.851 4.073-.65.627-1.265 1.218-1.857 1.832l-14.397 14.876a2.931 2.931 0 0 1-2.09.886h-.007z"/>
        <path fill="#FFFAFA" d="M151 160h-14.146v23.252a12.022 12.022 0 0 0-6.152-1.675c-6.463 0-11.702 5.019-11.702 11.211 0 6.193 5.24 11.212 11.702 11.212 6.097 0 11.104-4.47 11.648-10.177h.053v-28.056H151V160z"/>
        <path fill="#2C3B51" d="M130.29 183.382c-5.308 0-9.625 4.263-9.625 9.5 0 5.24 4.317 9.502 9.625 9.502 5.007 0 9.126-3.706 9.583-8.621.007-.09.022-.174.042-.258v-27.877c0-1 .822-1.81 1.832-1.81h6.588v-2.2h-10.189v21.645c0 .657-.36 1.262-.94 1.58-.58.32-1.29.303-1.856-.043a9.693 9.693 0 0 0-5.06-1.418m0 22.618c-7.328 0-13.29-5.883-13.29-13.118 0-7.233 5.962-13.118 13.29-13.118 1.434 0 2.848.228 4.192.67V159.81c0-.999.821-1.81 1.834-1.81h13.85c1.012 0 1.834.811 1.834 1.81v5.818c0 .997-.822 1.808-1.834 1.808h-6.586v26.492c0 .214-.039.42-.107.61a13.018 13.018 0 0 1-4.202 8.012 13.337 13.337 0 0 1-8.981 3.45"/>
        <path fill="#FFFAFA" d="M50.188 225.049c-5.465 0-9.893-4.43-9.893-9.895s4.428-9.895 9.893-9.895c5.464 0 9.893 4.43 9.893 9.895s-4.43 9.895-9.893 9.895m0-29.049c-10.77 0-19.5 8.73-19.5 19.503 0 5.9 2.623 11.186 6.766 14.762L50.188 243l12.733-12.735c4.143-3.576 6.767-8.861 6.767-14.762 0-10.772-8.731-19.503-19.5-19.503"/>
        <path fill="#2C3B51" d="M50.188 207.016c-4.476 0-8.118 3.638-8.118 8.11 0 4.472 3.642 8.108 8.118 8.108 4.477 0 8.119-3.636 8.119-8.108s-3.642-8.11-8.119-8.11m0 19.915c-6.516 0-11.82-5.295-11.82-11.805 0-6.511 5.304-11.807 11.82-11.807 6.517 0 11.82 5.296 11.82 11.807 0 6.51-5.303 11.805-11.82 11.805m0-29.236c-9.813 0-17.799 7.977-17.799 17.78a17.766 17.766 0 0 0 6.179 13.46c.034.029.068.061.098.093l11.522 11.508 11.523-11.508c.032-.032.064-.064.098-.093a17.76 17.76 0 0 0 6.178-13.46c0-9.803-7.983-17.78-17.799-17.78m0 47.305c-.473 0-.946-.18-1.308-.542l-12.783-12.77a21.454 21.454 0 0 1-7.409-16.213c0-11.84 9.645-21.475 21.5-21.475 11.856 0 21.5 9.634 21.5 21.475a21.458 21.458 0 0 1-7.407 16.214l-12.785 12.77c-.36.36-.834.541-1.308.541"/>
        <path fill="#FFFAFA" d="M122.717 261.2a11.405 11.405 0 0 1-16.201 0c-4.474-4.503-4.474-11.802 0-16.304a11.405 11.405 0 0 1 16.2 0c4.474 4.502 4.474 11.801 0 16.303m19.436 13.709l-11.566-11.64c4.666-7.367 3.807-17.256-2.586-23.69-7.392-7.438-19.376-7.437-26.766 0-7.393 7.44-7.395 19.5-.002 26.939 6.498 6.538 16.544 7.328 23.9 2.371l11.502 11.572c.993 1 3.05.571 4.569-.958 1.516-1.526 1.942-3.595.949-4.594"/>
        <path fill="#2C3B51" d="M114.59 244.1a9.689 9.689 0 0 0-6.823 2.783 9.393 9.393 0 0 0-2.826 6.73 9.386 9.386 0 0 0 2.826 6.727 9.655 9.655 0 0 0 6.824 2.788c2.578 0 5-.99 6.824-2.788a9.432 9.432 0 0 0 0-13.457 9.692 9.692 0 0 0-6.824-2.783zm0 22.715c-3.576 0-6.938-1.373-9.466-3.867-2.529-2.493-3.922-5.808-3.922-9.336 0-3.527 1.393-6.842 3.922-9.337 5.219-5.147 13.713-5.147 18.933 0a13.089 13.089 0 0 1 0 18.673c-2.528 2.494-5.89 3.867-9.466 3.867zm23.44 12.484c.235.08 1.111-.074 1.972-.922.858-.847 1.014-1.71.934-1.941l-11.608-11.447a1.825 1.825 0 0 1-.255-2.295 16.82 16.82 0 0 0 2.587-10.838 16.855 16.855 0 0 0-4.932-10.212c-3.243-3.196-7.552-4.957-12.137-4.957-4.584 0-8.894 1.761-12.136 4.957-3.242 3.197-5.028 7.448-5.028 11.968 0 4.521 1.786 8.772 5.027 11.97 5.779 5.697 14.892 6.582 21.67 2.106a1.892 1.892 0 0 1 2.363.228L138.03 279.3zm.143 3.701c-1.057 0-2.031-.35-2.764-1.07l-10.52-10.377c-8.09 4.522-18.41 3.21-25.078-3.365-3.95-3.893-6.123-9.07-6.123-14.576 0-5.505 2.175-10.682 6.124-14.575 3.948-3.892 9.196-6.037 14.779-6.037 5.584 0 10.832 2.143 14.78 6.037 3.383 3.337 5.517 7.755 6.007 12.44a20.489 20.489 0 0 1-2.386 11.91l10.61 10.463c1.759 1.735 1.34 4.869-.956 7.133-1.343 1.325-2.987 2.017-4.473 2.017z"/>
        <path fill="#FFFAFA" d="M36.5 120.478c3.316 0 6.023 2.706 6.023 6.022 0 3.316-2.707 6.022-6.022 6.022-3.316 0-6.022-2.706-6.022-6.022 0-3.316 2.706-6.022 6.022-6.022zM34.068 106a3.585 3.585 0 0 0-3.588 3.586v2.307l-1.665-1.665a3.582 3.582 0 0 0-5.063 0l-3.459 3.46c-1.396 1.396-1.396 3.728 0 5.124l1.667 1.666h-2.371A3.586 3.586 0 0 0 16 124.066v4.87a3.585 3.585 0 0 0 3.588 3.586h2.307l-1.603 1.603c-1.396 1.396-1.396 3.729 0 5.123l3.46 3.46a3.582 3.582 0 0 0 5.062 0l1.665-1.666v2.372A3.584 3.584 0 0 0 34.067 147h4.868a3.584 3.584 0 0 0 3.588-3.586v-2.372l1.665 1.666a3.58 3.58 0 0 0 5.06 0l3.46-3.46c1.396-1.394 1.396-3.727 0-5.123l-1.601-1.603h2.307A3.584 3.584 0 0 0 57 128.936v-4.87a3.584 3.584 0 0 0-3.586-3.588h-2.371l1.665-1.665c1.396-1.397 1.396-3.73 0-5.126l-3.46-3.459a3.58 3.58 0 0 0-5.06 0l-1.665 1.665v-2.307A3.585 3.585 0 0 0 38.935 106h-4.868z"/>
        <path fill="#2C3B51" d="M36.5 122.303a4.2 4.2 0 0 0-4.195 4.196 4.2 4.2 0 0 0 4.196 4.196 4.2 4.2 0 0 0 4.196-4.196 4.2 4.2 0 0 0-4.196-4.196m0 12.123c-4.372 0-7.927-3.555-7.927-7.927 0-4.37 3.555-7.925 7.927-7.925 4.37 0 7.927 3.555 7.927 7.925 0 4.372-3.557 7.927-7.927 7.927m-6.061 4.847a1.866 1.866 0 0 1 1.865 1.865v2.385c0 .963.782 1.746 1.746 1.746h4.9c.962 0 1.746-.783 1.746-1.746v-2.385a1.866 1.866 0 0 1 3.184-1.32l1.676 1.678a1.74 1.74 0 0 0 2.457 0l3.482-3.482c.327-.33.507-.775.507-1.261 0-.486-.18-.934-.507-1.26l-1.614-1.614a1.866 1.866 0 0 1 1.32-3.184h2.323c.962 0 1.746-.782 1.746-1.744v-4.902c0-.962-.784-1.746-1.746-1.746h-2.387a1.863 1.863 0 0 1-1.722-1.151c-.29-.697-.13-1.5.403-2.033l1.677-1.676a1.807 1.807 0 0 0 0-2.521l-3.482-3.48a1.738 1.738 0 0 0-2.457 0l-1.676 1.674a1.865 1.865 0 0 1-3.184-1.319v-2.32c0-.964-.784-1.746-1.746-1.746h-4.9c-.964 0-1.746.782-1.746 1.746v2.32a1.867 1.867 0 0 1-3.186 1.319l-1.674-1.676a1.741 1.741 0 0 0-2.459.001l-3.48 3.48a1.804 1.804 0 0 0 0 2.522l1.676 1.676a1.866 1.866 0 0 1-1.318 3.184h-2.387c-.963 0-1.746.784-1.746 1.746v4.902c0 .962.783 1.744 1.746 1.744h2.322a1.864 1.864 0 0 1 1.319 3.184l-1.612 1.613a1.76 1.76 0 0 0-.51 1.261c0 .486.181.932.508 1.26l3.484 3.483a1.74 1.74 0 0 0 2.457 0l1.674-1.678a1.87 1.87 0 0 1 1.32-.545M38.952 149h-4.9a5.486 5.486 0 0 1-5.25-3.915 5.479 5.479 0 0 1-6.452-.952l-3.482-3.482a5.468 5.468 0 0 1-1.601-3.898c0-.911.214-1.784.62-2.562A5.487 5.487 0 0 1 14 128.95v-4.902a5.488 5.488 0 0 1 3.913-5.248 5.524 5.524 0 0 1 .954-6.517l3.482-3.482a5.48 5.48 0 0 1 6.469-.943A5.487 5.487 0 0 1 34.05 104h4.9a5.489 5.489 0 0 1 5.233 3.859 5.477 5.477 0 0 1 6.467.943l3.484 3.482a5.527 5.527 0 0 1 .954 6.517A5.486 5.486 0 0 1 59 124.049v4.902a5.485 5.485 0 0 1-3.886 5.24c.406.778.62 1.65.62 2.562a5.467 5.467 0 0 1-1.6 3.898l-3.483 3.482a5.476 5.476 0 0 1-6.45.952 5.49 5.49 0 0 1-5.25 3.915"/>
        <path fill="#E0E1E6" d="M10.195 265l74.367 51.827L165.688 265l-2.253 123.933L77.8 434 5.688 384.427z"/>
        <path fill="#FFF" d="M73.688 421h30V314h-30z"/>
        <path fill="#FFF" d="M178.688 359.362L147.877 379v-86.005L92.405 331.84a4.813 4.813 0 0 1-5.519 0l-55.47-38.844v85.866L.689 359.263V234l86.086 60.278a5.009 5.009 0 0 0 5.748 0L178.605 234l.083 125.362z"/>
        <path fill="#00CAFC" d="M86.156 450.958L.722 395.838.688 359l85.83 55.17a5.85 5.85 0 0 0 6.34 0l85.83-55.17-.08 36.838-85.388 55.12a6.507 6.507 0 0 1-7.064 0"/>
        <path fill="#FFFAFA" d="M73.796 2.486l6.627 13.17 14.815 2.111c.728.104 1.02.983.493 1.487L85.01 29.504l2.53 14.476c.124.712-.637 1.254-1.288.918L73 38.064 59.75 44.898c-.652.336-1.415-.206-1.289-.918l2.531-14.476-10.723-10.25c-.525-.504-.235-1.383.494-1.487l14.816-2.11 6.625-13.171c.326-.648 1.267-.648 1.593 0"/>
        <path fill="#2C3B51" d="M72.502 36.44c.281 0 .565.067.823.204l11.495 6.061-2.196-12.837a1.786 1.786 0 0 1 .51-1.573l9.299-9.092-12.851-1.873a1.769 1.769 0 0 1-1.334-.97L72.502 4.676l-5.75 11.682a1.763 1.763 0 0 1-1.332.971l-12.851 1.873 9.299 9.092c.417.41.607.996.51 1.573L60.18 42.705l11.496-6.06c.258-.138.541-.205.825-.205zM86.007 47c-.42 0-.843-.101-1.234-.308L72.502 40.22l-12.273 6.472a2.63 2.63 0 0 1-2.79-.201 2.647 2.647 0 0 1-1.052-2.598l2.344-13.705-9.928-9.708a2.645 2.645 0 0 1-.672-2.722 2.638 2.638 0 0 1 2.139-1.808l13.721-2 6.136-12.47A2.63 2.63 0 0 1 72.502 0c1.015 0 1.924.567 2.372 1.48l6.138 12.47 13.72 2a2.636 2.636 0 0 1 2.136 1.808 2.644 2.644 0 0 1-.67 2.722l-9.928 9.708 2.345 13.705c.172 1.003-.232 1.999-1.055 2.598a2.641 2.641 0 0 1-1.553.509z"/>
    </g>
</svg>
