<svg height="120" viewBox="0 0 120 120" width="120" xmlns="http://www.w3.org/2000/svg"><g fill="none" fill-rule="evenodd"><rect height="118" opacity=".5" rx="10" stroke="#999" stroke-width="2" width="118" x="1" y="1"/><path d="m77.2 46.6h-6.5333333l-3.1733334-4.8533333c-.3733333-.3733334-.9333333-.7466667-1.4933333-.7466667h-11.2c-.56 0-1.12.3733333-1.4933333.7466667l-3.1733334 4.8533333h-6.5333333c-3.1733333 0-5.6 2.4266667-5.6 5.6v20.5333333c0 3.1733334 2.4266667 5.6 5.6 5.6h33.6c3.1733333 0 5.6-2.4266666 5.6-5.6v-20.5333333c0-3.1733333-2.4266667-5.6-5.6-5.6zm1.8666667 26.1333333c0 1.12-.7466667 1.8666667-1.8666667 1.8666667h-33.6c-1.12 0-1.8666667-.7466667-1.8666667-1.8666667v-20.5333333c0-1.12.7466667-1.8666667 1.8666667-1.8666667h7.4666667c.56 0 1.12-.3733333 1.4933333-.7466666l3.1733333-4.8533334h9.1466667l3.1733333 4.8533334c.56.3733333 1.12.7466666 1.68.7466666h7.4666667c1.12 0 1.8666667.7466667 1.8666667 1.8666667zm-18.6666667-20.5333333c-5.2266667 0-9.3333333 4.1066667-9.3333333 9.3333333 0 5.2266667 4.1066666 9.3333334 9.3333333 9.3333334s9.3333333-4.1066667 9.3333333-9.3333334c0-5.2266666-4.1066666-9.3333333-9.3333333-9.3333333zm0 14.9333333c-3.1733333 0-5.6-2.4266666-5.6-5.6 0-3.1733333 2.4266667-5.6 5.6-5.6s5.6 2.4266667 5.6 5.6c0 3.1733334-2.4266667 5.6-5.6 5.6z" fill="#ccc" fill-rule="nonzero"/></g></svg>