<svg height="18" viewBox="0 0 18 18" width="18" xmlns="http://www.w3.org/2000/svg"><path d="m37.2 0h-6.3c-.54 0-.9.36-.9.9v6.3c0 .54.36.9.9.9h6.3c.54 0 .9-.36.9-.9v-6.3c0-.54-.36-.9-.9-.9zm-.9 6.3h-4.5v-4.5h4.5zm10.8-6.3h-6.3c-.54 0-.9.36-.9.9v6.3c0 .54.36.9.9.9h6.3c.54 0 .9-.36.9-.9v-6.3c0-.54-.36-.9-.9-.9zm-.9 6.3h-4.5v-4.5h4.5zm.9 3.6h-6.3c-.54 0-.9.36-.9.9v6.3c0 .54.36.9.9.9h6.3c.54 0 .9-.36.9-.9v-6.3c0-.54-.36-.9-.9-.9zm-.9 6.3h-4.5v-4.5h4.5zm-9-6.3h-6.3c-.54 0-.9.36-.9.9v6.3c0 .54.36.9.9.9h6.3c.54 0 .9-.36.9-.9v-6.3c0-.54-.36-.9-.9-.9zm-.9 6.3h-4.5v-4.5h4.5z" transform="translate(-30)"/></svg>