<svg xmlns="http://www.w3.org/2000/svg" xmlns:xlink="http://www.w3.org/1999/xlink" width="375" height="480" viewBox="0 0 375 480">
    <defs>
        <linearGradient id="b" x1="100%" x2="69.959%" y1="80.615%" y2="38.973%">
            <stop offset="0%" stop-color="#353C52"/>
            <stop offset="100%" stop-color="#171C2F"/>
        </linearGradient>
        <path id="a" d="M592 481.58H0V172.12C73.38 102.435 215.74 41.004 385.27 13.987 458.213 2.363 528.48-1.65 592 1.012V481.58z"/>
    </defs>
    <g fill="none" fill-rule="evenodd" transform="translate(-109)">
        <mask id="c" fill="#fff">
            <use xlink:href="#a"/>
        </mask>
        <use fill="url(#b)" transform="matrix(1 0 0 -1 0 481.803)" xlink:href="#a"/>
        <g mask="url(#c)" opacity=".653">
            <g opacity=".149">
                <path fill="#FAFAFA" d="M369.97 395.055l-7.1 4.272V380.93l-13.41 8.869-13.41-8.87v18.369l-7.08-4.263v-26.939l20.464 13.533a.05.05 0 0 0 .053 0l20.483-13.533v26.96z"/>
                <path fill="#00CAFC" d="M363.798 372.178l-14.28-9.182-14.37 9.198-6.178-4.078 20.556-13.197 20.444 13.197zM349.47 415.431l-20.5-12.484v-8.012l20.5 12.443 20.5-12.443v8.012z"/>
            </g>
            <g opacity=".05">
                <path fill="#FAFAFA" d="M256 395.055l-7.1 4.272V380.93l-13.41 8.869-13.41-8.87v18.369l-7.08-4.263v-26.939l20.464 13.533a.05.05 0 0 0 .053 0L256 368.095v26.96z"/>
                <path fill="#00CAFC" d="M249.829 372.178l-14.281-9.182-14.37 9.198-6.178-4.078 20.557-13.197L256 368.116zM235.5 415.431L215 402.947v-8.012l20.5 12.443 20.5-12.443v8.012z"/>
            </g>
            <g opacity=".05">
                <path fill="#FAFAFA" d="M484.1 464.011l-7.1 4.272v-18.399l-13.41 8.87-13.41-8.87v18.369l-7.08-4.263V437.05l20.464 13.533a.05.05 0 0 0 .052 0L484.1 437.05v26.96z"/>
                <path fill="#00CAFC" d="M477.928 441.133l-14.28-9.181-14.371 9.198-6.178-4.078 20.557-13.197 20.443 13.197zM463.6 484.387l-20.5-12.484v-8.012l20.5 12.442 20.5-12.442v8.012z"/>
            </g>
            <g opacity=".05">
                <path fill="#FAFAFA" d="M484.1 395.011l-7.1 4.272v-18.399l-13.41 8.87-13.41-8.87v18.369l-7.08-4.263V368.05l20.464 13.533a.05.05 0 0 0 .052 0L484.1 368.05v26.96z"/>
                <path fill="#00CAFC" d="M477.928 372.133l-14.28-9.181-14.371 9.198-6.178-4.078 20.557-13.197 20.443 13.197zM463.6 415.387l-20.5-12.484v-8.012l20.5 12.442 20.5-12.442v8.012z"/>
            </g>
            <g opacity=".08">
                <path fill="#FAFAFA" d="M312.853 357.136l-7.1 4.272v-18.399l-13.41 8.87-13.409-8.87v18.369l-7.08-4.263v-26.939l20.463 13.533a.05.05 0 0 0 .053 0l20.483-13.533v26.96z"/>
                <path fill="#00CAFC" d="M306.682 334.258l-14.28-9.181-14.371 9.198-6.178-4.078L292.41 317l20.443 13.197zM292.353 377.512l-20.5-12.484v-8.012l20.5 12.442 20.5-12.442v8.012z"/>
            </g>
            <g opacity=".08">
                <path fill="#FAFAFA" d="M427.35 426.194l-7.1 4.272v-18.398l-13.41 8.869-13.41-8.87v18.369l-7.08-4.263v-26.939l20.463 13.533a.05.05 0 0 0 .053 0l20.483-13.533v26.96z"/>
                <path fill="#00CAFC" d="M421.178 403.317l-14.28-9.182-14.371 9.198-6.178-4.078 20.557-13.197 20.443 13.197zM406.85 446.57l-20.5-12.484v-8.012l20.5 12.443 20.5-12.443v8.012z"/>
            </g>
        </g>
    </g>
</svg>
