<svg xmlns="http://www.w3.org/2000/svg" width="63" height="32" viewBox="0 0 63 32">
    <g fill="none" fill-rule="evenodd">
        <path fill="#FFF" d="M18.924 19.402l-3.276 2.09V12.49l-6.19 4.34-6.191-4.34v8.989L0 19.392V6.209l9.445 6.622a.022.022 0 0 0 .025 0l9.445-6.622.009 13.193z"/>
        <path fill="#00CAFC" d="M9.462 29.373L.004 23.264 0 19.344l9.462 6.088 9.462-6.089-.009 3.921zM16.05 8.252L9.469 3.908 2.847 8.26.002 6.266 9.472.003l9.411 6.263z"/>
        <path fill="#FFF" d="M28.362 18.536c.942 0 1.717-.326 2.324-.977.607-.652.91-1.494.91-2.526 0-1.017-.3-1.851-.898-2.503-.599-.651-1.378-.977-2.336-.977s-1.736.325-2.335.977c-.599.652-.898 1.486-.898 2.503 0 1.032.303 1.874.91 2.526.607.652 1.38.977 2.323.977zm-.91 2.955a5.406 5.406 0 0 1-2.886-.786 5.465 5.465 0 0 1-2.024-2.253c-.496-.977-.743-2.1-.743-3.372a7.135 7.135 0 0 1 .73-3.23 5.998 5.998 0 0 1 2.073-2.359 5.32 5.32 0 0 1 3.018-.894c.784-.01 1.56.166 2.263.513.66.326 1.22.824 1.617 1.442l.048-1.573h3.186v12.13h-3.186l-.048-1.548a3.971 3.971 0 0 1-1.653 1.442c-.751.339-1.57.506-2.395.488zM41.92 21.492a10.497 10.497 0 0 1-2.635-.321c-.83-.215-1.469-.497-1.916-.847l.407-2.693a7.675 7.675 0 0 0 4 1.216c1.358 0 2.036-.342 2.037-1.025a.939.939 0 0 0-.432-.835c-.287-.19-.886-.413-1.796-.667-1.437-.397-2.464-.902-3.078-1.514-.615-.611-.923-1.434-.923-2.467 0-1.16.44-2.073 1.318-2.74.878-.668 2.084-1.002 3.617-1.002.758 0 1.514.089 2.252.262a6.495 6.495 0 0 1 1.844.691l-.383 2.623a6.803 6.803 0 0 0-1.713-.68 7.428 7.428 0 0 0-1.856-.25c-1.166 0-1.749.31-1.749.93a.953.953 0 0 0 .42.822c.278.199.833.417 1.664.655 1.533.445 2.615.97 3.246 1.573.63.605.946 1.439.946 2.503 0 1.177-.467 2.098-1.401 2.765-.934.668-2.224 1.001-3.869 1.001M55.91 18.589c.942 0 1.716-.328 2.323-.983.607-.654.91-1.501.91-2.54 0-1.021-.299-1.86-.898-2.515s-1.377-.982-2.335-.983c-.958 0-1.737.328-2.336.983-.599.655-.898 1.494-.898 2.516 0 1.038.304 1.885.91 2.54.607.655 1.381.982 2.324.982zm3.042 7.202v-6.052c-.847 1.214-2.164 1.82-3.952 1.82a5.385 5.385 0 0 1-2.887-.79 5.485 5.485 0 0 1-2.024-2.264c-.495-.982-.743-2.113-.743-3.39a7.205 7.205 0 0 1 .731-3.247 6.018 6.018 0 0 1 2.072-2.372 5.3 5.3 0 0 1 3.018-.899c.785-.01 1.56.167 2.264.516a4.06 4.06 0 0 1 1.617 1.45l.048-1.582h3.185v16.81h-3.33z"/>
        <path fill="#00CAFC" fill-rule="nonzero" d="M43.247 32c-.246 0-.369-.043-.369-.129 0-.013.01-.05.027-.11l1.513-4.176c.027-.081.141-.122.342-.122h.295c.196 0 .31.04.341.122l1.513 4.177a.38.38 0 0 1 .02.11c0 .085-.107.128-.321.128H46.4c-.196 0-.31-.04-.341-.122l-.308-.883h-1.714l-.308.883c-.032.081-.13.122-.295.122h-.187zm2.25-1.727l-.49-1.418a2.274 2.274 0 0 1-.093-.4h-.027a6.699 6.699 0 0 1-.033.168c-.018.086-.04.163-.067.232l-.502 1.418h1.211zm2.263 1.714c-.085 0-.148-.02-.188-.058-.04-.039-.06-.099-.06-.18v-4.1c0-.124.118-.186.355-.186h.167c.125 0 .216.015.271.045a.15.15 0 0 1 .084.142v3.615h1.587c.063 0 .107.023.134.068.027.045.04.115.04.21v.167a.423.423 0 0 1-.04.21c-.027.045-.071.067-.134.067H47.76zm3.294.013a.604.604 0 0 1-.271-.045.15.15 0 0 1-.084-.142v-4.099c0-.082.02-.142.057-.18.038-.04.1-.058.184-.058h1.393c.41 0 .772.094 1.085.283.312.19.469.548.469 1.076 0 .37-.09.658-.272.864-.18.206-.383.345-.609.416-.225.07-.427.106-.606.106h-.823v1.592c0 .125-.119.187-.355.187h-.168zm1.272-2.507a.769.769 0 0 0 .463-.145c.133-.097.2-.268.2-.513 0-.236-.069-.401-.207-.496a.845.845 0 0 0-.489-.142h-.716v1.296h.75zM54.925 32c-.237 0-.355-.062-.355-.187V27.65c0-.125.118-.187.355-.187h.174c.236 0 .355.062.355.187v1.669h2.022v-1.67c0-.124.118-.186.355-.186h.174c.236 0 .355.062.355.187v4.163c0 .125-.119.187-.355.187h-.174c-.237 0-.355-.062-.355-.187v-1.766h-2.022v1.766c0 .125-.119.187-.355.187h-.174zm4.392 0c-.245 0-.368-.043-.368-.129 0-.013.009-.05.027-.11l1.513-4.176c.027-.081.14-.122.341-.122h.295c.197 0 .31.04.342.122l1.513 4.177a.38.38 0 0 1 .02.11c0 .085-.107.128-.321.128h-.208c-.196 0-.31-.04-.341-.122l-.309-.883h-1.714l-.308.883c-.031.081-.13.122-.294.122h-.188zm2.25-1.727l-.489-1.418a2.274 2.274 0 0 1-.094-.4h-.026a6.698 6.698 0 0 1-.034.168c-.018.086-.04.163-.067.232l-.502 1.418h1.212z"/>
    </g>
</svg>
