<svg xmlns="http://www.w3.org/2000/svg" width="79" height="31" viewBox="0 0 79 31">
    <g fill="#FFF" fill-rule="nonzero">
        <g fill-opacity=".5">
            <path d="M78.899 29.426l-.056-.487c0-.046-.045-.08-.09-.08h-.023c-.01 0-.01.012-.022.012a1.103 1.103 0 0 1-.393.068c-.158 0-.27-.046-.338-.125-.067-.09-.1-.227-.1-.43v-1.066h.808a.077.077 0 0 0 .079-.08v-.476c0-.045-.045-.08-.09-.08h-.809V25.993c0-.046-.045-.08-.09-.08h-.607c-.045 0-.078.034-.09.08v.69h-.472a.089.089 0 0 0-.09.092v.476c0 .045.034.079.068.09h.483v1.202c0 .374.09.657.259.839.168.181.438.272.786.272.146 0 .292-.012.427-.046.101-.022.203-.056.27-.09.067-.023.09-.046.09-.091 0 .011 0 .011 0 0zM65.155 28.769c-.01-.023-.022-.046-.033-.068-.012-.057.033-.114.067-.16.034-.045.056-.101.09-.158.056-.102.101-.215.135-.329.078-.238.1-.487.1-.736a2.605 2.605 0 0 0-.145-.782 1.98 1.98 0 0 0-.382-.624 2.048 2.048 0 0 0-.506-.43 1.98 1.98 0 0 0-.663-.261c-.247-.057-.506-.068-.753-.057-.258.023-.506.08-.742.193-.236.102-.449.249-.629.43a2.44 2.44 0 0 0-.45.624c-.112.238-.18.487-.202.748-.022.26-.01.521.045.77.057.25.158.488.293.704.134.215.303.396.494.544.191.147.416.26.64.34.124.045.259.068.394.09.123.023.247.034.37.023.124 0 .237-.011.36-.034.068-.011.135-.023.191-.034.056-.011.113-.023.135-.08.023-.045-.011-.09-.034-.135-.022-.057-.056-.102-.078-.16-.045-.101-.101-.192-.146-.294a.115.115 0 0 0-.068-.056c-.022-.012-.056 0-.078 0-.034.01-.068.01-.102.01-.134.024-.27.024-.404 0a1.466 1.466 0 0 1-.697-.294 1.557 1.557 0 0 1-.46-.59 1.563 1.563 0 0 1-.113-.747c.034-.25.124-.5.27-.703a1.5 1.5 0 0 1 .562-.465 1.441 1.441 0 0 1 1.404.09c.18.114.326.273.45.454a1.528 1.528 0 0 1 .112 1.383 1.57 1.57 0 0 1-.37.521c-.023.023-.046.035-.057.069a.098.098 0 0 0 0 .079l.416.839c.022.045.045.102.09.136.034.022.067.011.101.011h.64c.08 0 .135-.08.09-.159-.044-.079-.078-.158-.123-.226l-.214-.476zM68.931 28.644l.506-1.916a.085.085 0 0 1 .079-.056h.618c.045 0 .09.034.09.09v.023l-.9 2.709c-.01.034-.044.045-.078.045h-.585a.085.085 0 0 1-.078-.056l-.63-1.848-.606 1.848a.094.094 0 0 1-.079.045h-.573a.085.085 0 0 1-.079-.057l-.899-2.731c0-.046.034-.091.09-.091h.64c.034 0 .057.023.068.045l.506 1.927.584-1.915a.085.085 0 0 1 .079-.057h.528c.034 0 .067.023.079.045l.64 1.95zM72.471 27.034a.93.93 0 0 0-.382-.34 1.17 1.17 0 0 0-.528-.124c-.259 0-.495.068-.708.215-.214.136-.371.329-.483.555a1.724 1.724 0 0 0-.169.771v.057c.011.272.067.521.169.737.112.226.27.408.472.532.202.125.427.182.674.182.18 0 .337-.023.472-.08 0 0 .303-.102.472-.374l.011.295c.011.045.045.08.09.08h.573c.045 0 .09-.035.09-.091V26.75a.089.089 0 0 0-.09-.09h-.573a.098.098 0 0 0-.09.067v.306zm-.169.499c.135.147.191.34.191.578 0 .25-.067.442-.213.6a.694.694 0 0 1-.54.228.7.7 0 0 1-.539-.227.844.844 0 0 1-.213-.533s-.045-.374.213-.657c.135-.159.326-.227.55-.227-.01-.023.327-.045.551.238zM74.483 26.74c-.012-.046-.045-.08-.09-.08h-.585a.089.089 0 0 0-.09.09v2.699c0 .045.034.09.09.09h.607a.085.085 0 0 0 .079-.056v-1.485c0-.227.056-.408.157-.533a.535.535 0 0 1 .438-.193c.337 0 .506.227.506.67v1.54a.085.085 0 0 0 .079.057h.607c.044 0 .09-.034.09-.09v-1.655c0-.397-.09-.703-.27-.907-.18-.204-.439-.317-.776-.317-.202 0-.37.034-.517.113a.973.973 0 0 0-.348.329l.023-.272z"/>
        </g>
        <path d="M21.497 8.887C20.587 7.833 19.25 7.3 17.52 7.3c-1.011 0-1.944.238-2.787.725-.854.476-1.472 1.122-1.876 1.905-.854-1.757-2.349-2.63-4.462-2.63-1.01 0-1.899.193-2.652.578a4.317 4.317 0 0 0-1.786 1.7l-.023-1.235a.574.574 0 0 0-.55-.578H.663a.578.578 0 0 0-.573.578v13.534c0 .317.258.578.573.578h2.82c.315 0 .574-.26.574-.578v-7.368c0-1.134.258-2.029.753-2.686.505-.658 1.202-.987 2.101-.987.9 0 1.55.284 1.955.84.405.555.618 1.427.618 2.595v7.594c0 .318.259.579.574.579h2.831c.315 0 .562-.25.574-.556v-7.356c0-1.157.247-2.063.753-2.71.505-.657 1.202-.986 2.078-.986.877 0 1.529.284 1.945.84.415.555.629 1.427.629 2.595v7.628c.022.307.27.545.573.545h2.832c.314 0 .573-.261.573-.579v-8.342c.022-2.03-.438-3.582-1.349-4.636zM39.938 7.753H37.23a.566.566 0 0 0-.55.578l-.046 1.327a4.816 4.816 0 0 0-1.932-1.746c-.81-.42-1.72-.624-2.709-.624-1.337 0-2.54.363-3.607 1.077a7.22 7.22 0 0 0-2.472 2.857c-.585 1.19-.877 2.493-.877 3.91 0 1.542.292 2.902.888 4.081.596 1.179 1.393 2.097 2.416 2.732 1.023.635 2.169.952 3.45.952 1.09 0 2.045-.193 2.866-.59a4.769 4.769 0 0 0 1.977-1.745l.045 1.292c0 .317.259.578.573.578h2.675c.315 0 .573-.26.573-.578V8.331a.583.583 0 0 0-.562-.578zm-4.281 10.395c-.73.793-1.652 1.19-2.776 1.19-1.124 0-2.056-.397-2.776-1.19-.73-.794-1.09-1.814-1.09-3.061 0-1.235.36-2.244 1.068-3.038.72-.793 1.64-1.179 2.787-1.179 1.146 0 2.079.397 2.787 1.18.719.793 1.067 1.802 1.067 3.037.023 1.258-.337 2.278-1.067 3.06zM48.153 22.92a12.28 12.28 0 0 1-3.147-.386c-.797-.204-1.45-.476-1.955-.782a.633.633 0 0 1-.28-.623l.291-1.95a.63.63 0 0 1 .91-.465c.461.238.956.442 1.506.612a8.379 8.379 0 0 0 2.506.408c1.619 0 2.439-.419 2.439-1.246 0-.442-.169-.783-.517-1.01-.348-.226-1.056-.498-2.146-.804-1.72-.476-2.945-1.088-3.675-1.836-.73-.737-1.101-1.735-1.101-2.993 0-1.405.528-2.516 1.573-3.321 1.045-.805 2.495-1.213 4.326-1.213.9 0 1.798.102 2.686.318.697.17 1.304.374 1.798.612a.617.617 0 0 1 .337.657l-.27 1.87a.623.623 0 0 1-.865.488 8.393 8.393 0 0 0-1.303-.442 8.726 8.726 0 0 0-2.214-.306c-1.394 0-2.09.374-2.09 1.122 0 .42.168.76.505.997.338.238 1 .51 1.99.794 1.831.544 3.124 1.179 3.876 1.904.753.737 1.135 1.746 1.135 3.027 0 1.428-.561 2.539-1.674 3.355-1.135.805-2.675 1.213-4.641 1.213zM56.289 27.828a.826.826 0 0 1 .652-.318c.157 0 .292.034.438.114.18.102.326.25.404.43.068.16.113.318.113.5 0 .34-.113.6-.326.804a.895.895 0 0 1-.64.25.775.775 0 0 1-.641-.318v.102a.328.328 0 0 1-.023.136c-.022.023-.056.023-.134.023h-.236c-.068 0-.113-.012-.124-.023-.022-.023-.022-.057-.022-.136v-3.095c0-.068.01-.113.022-.136.022-.022.056-.022.124-.022h.236a.32.32 0 0 1 .134.022c.023.023.023.057.023.136v1.53zm.483.181a.533.533 0 0 0-.382.159.516.516 0 0 0-.157.385.542.542 0 0 0 .54.544c.145 0 .28-.056.381-.158a.524.524 0 0 0 .158-.397.562.562 0 0 0-.158-.386.506.506 0 0 0-.382-.147zM58.862 29.245l-.809-1.474a.562.562 0 0 1-.045-.102c0-.034.011-.057.034-.068a.298.298 0 0 1 .124-.023h.292c.056 0 .1 0 .112.012a.423.423 0 0 1 .068.09l.528 1.02.505-1.008c.023-.057.045-.091.057-.091.01-.011.056-.011.112-.011h.28c.057 0 .09 0 .113.011.034.011.045.045.045.08 0 .022-.011.056-.045.101l-1.416 2.732c-.022.057-.045.08-.067.09-.011.012-.056.012-.112.012h-.281c-.057 0-.09 0-.113-.011-.033-.012-.045-.046-.045-.08 0-.022.012-.056.045-.102l.618-1.178z"/>
        <path fill-opacity=".5" d="M76.944 18.533c-.057-.113-.135-.227-.158-.351-.056-.295.191-.556.337-.794a11.732 11.732 0 0 0 1.135-2.494 11.92 11.92 0 0 0 .517-3.774c-.033-1.372-.28-2.743-.775-4.013A11.333 11.333 0 0 0 76.067 3.9a10.682 10.682 0 0 0-2.618-2.21 11.403 11.403 0 0 0-3.383-1.36A13.01 13.01 0 0 0 66.2.068c-1.314.102-2.618.42-3.82.963a11.504 11.504 0 0 0-3.237 2.21 11.196 11.196 0 0 0-2.292 3.209 11.64 11.64 0 0 0-1.057 3.831 12.794 12.794 0 0 0 .236 3.979c.281 1.27.787 2.493 1.484 3.593a10.734 10.734 0 0 0 2.55 2.788c.99.76 2.113 1.338 3.293 1.723.652.216 1.315.363 1.99.465.629.09 1.292.147 1.932.125a17.049 17.049 0 0 0 1.854-.16c.338-.056.675-.112 1-.203.282-.068.585-.125.697-.43.09-.25-.033-.454-.146-.67l-.404-.816-.742-1.496a.559.559 0 0 0-.326-.295c-.146-.045-.27-.011-.416.023a6.394 6.394 0 0 1-.494.09 7.722 7.722 0 0 1-2.045.012 7.49 7.49 0 0 1-3.551-1.485 7.525 7.525 0 0 1-2.338-3.026 7.554 7.554 0 0 1-.55-3.854 7.473 7.473 0 0 1 1.393-3.57 7.441 7.441 0 0 1 2.854-2.37 7.41 7.41 0 0 1 3.855-.691 7.407 7.407 0 0 1 3.36 1.156 7.647 7.647 0 0 1 2.281 2.3 7.725 7.725 0 0 1 1.169 3.64 7.514 7.514 0 0 1-.596 3.4 7.55 7.55 0 0 1-1.921 2.675c-.113.102-.236.193-.281.351a.54.54 0 0 0 .022.397l2.146 4.274c.113.215.214.544.439.68.157.09.36.068.528.068h3.281c.394-.012.674-.431.483-.794-.202-.397-.415-.793-.618-1.179l-1.27-2.448z"/>
    </g>
</svg>
